<svg xmlns="http://www.w3.org/2000/svg" viewBox="0 0 51.98 70"><defs><style>.cls-1{fill:#fff;}</style></defs><title>logo-m</title><g id="Layer_2" data-name="Layer 2"><g id="Layer_1-2" data-name="Layer 1"><path class="cls-1" d="M31.23.35l-.08,0L30.52.26l-.12,0-.33,0A32,32,0,0,0,25.65,0c-1.22,0-3,.1-3,.1a21.83,21.83,0,0,0-7,1.49l-.42.18.24.38L16,5.27,18.23,6,17,8.92l-.63.89.87,3.78-1.67,1.1L15.45,17,15,15.73l1-3.17-1.59-1.62,2.42-2.22L13.62,6.6l-.73-3.67-.45.27A25.7,25.7,0,0,0,0,23.89l0,.63.18,4.6L2.55,66.51,40,70l.36,0,5.2-2.55,5.5-36.07L52,24.52C52,11.45,43.41,1.92,31.23.35ZM40.1,69.22,3.27,65.81.93,29.08.75,24.5l0-.56A25,25,0,0,1,12.36,4.12l.58,2.94,2.67,1.76-2.29,2.09,1.83,1.86-.94,3L16,20.86l.3-5.75,1.79-1.18-.92-4,.46-.64,1.61-3.76-2.59-.86-.37-2.53A21.21,21.21,0,0,1,25,.88a22.54,22.54,0,0,1,3,.38C38,4.06,45.51,14,45.51,25.77l-.85,6.7Zm9.3-37.84L43.91,67.45l-2.58,1.37,5.42-43.07a25.82,25.82,0,0,0-8.15-19,20.9,20.9,0,0,0-11-5.91c-.29-.05-.58-.1-.86-.13s-.57-.08-.85-.1H25.8a30.38,30.38,0,0,1,4,.17A27.14,27.14,0,0,1,41.37,7.32a23.11,23.11,0,0,1,5.11,7.43,23.72,23.72,0,0,1,1.31,4.33,27.41,27.41,0,0,1,.48,4.53c0,.4.07.78.08,1.14a5.13,5.13,0,0,1-.09,1.08L48,28.11l-.61,4.56c-.4,3-.83,6.09-1.2,9.14L45,50.94l-1.07,9.15L45.37,51l1.36-9.11c.46-3,.86-6.07,1.3-9.11l.64-4.56L49,25.93a5.76,5.76,0,0,0,.11-1.2c0-.41-.06-.79-.08-1.16A27.71,27.71,0,0,0,48.49,19a24,24,0,0,0-1.39-4.46,22.29,22.29,0,0,0-5.33-7.58,26.42,26.42,0,0,0-7.76-5c-.83-.34-1.69-.65-2.56-.91a25.66,25.66,0,0,1,5.22,1.42l.45.2A22.66,22.66,0,0,1,44.32,8a24.37,24.37,0,0,1,6,16.54Z"/><path class="cls-1" d="M18.3,20.48c0,.27-.09.55-.14.82s-.1.55-.14.81c-.12.61-.23,1.22-.36,1.84l1.4-.26c.08-.6.16-1.19.25-1.75,0-.24.08-.5.12-.76s.08-.53.13-.79.08-.5.12-.74.09-.46.13-.66l.35-.07a1.9,1.9,0,0,0,.36-.09c0-.1.05-.22.08-.36s0-.28.07-.41l.1-.48-.64.1-.7.09c-.26,0-.51.05-.78.06h-.82c0,.15,0,.28,0,.42s0,.24,0,.37a2.82,2.82,0,0,1,0,.31.89.89,0,0,0,.36,0h.37c0,.22-.05.45-.09.71S18.35,20.2,18.3,20.48Z"/><path class="cls-1" d="M20.45,20.58c-.06.36-.12.69-.17,1-.14.77-.29,1.55-.43,2.33l1.22-.3c.06-.31.13-.62.19-.93s.1-.53.15-.82.11-.54.15-.76l.78-.1-.15.77-.18.87c-.06.32-.12.67-.2,1l1.26-.18c.12-.77.24-1.53.38-2.27.05-.31.11-.63.18-1s.13-.69.2-1,.15-.67.23-1,.15-.62.23-.89l-.47.07-.43.06-.41.08c-.11.41-.2.83-.27,1.22s-.13.79-.21,1.21l-.81.12q.12-.63.27-1.29c.09-.46.19-.89.29-1.3l-1.31.16c0,.27-.09.56-.14.88s-.11.67-.17,1S20.52,20.23,20.45,20.58Z"/><path class="cls-1" d="M26,23.36l.1-1-1.21.23L25.23,21c.17,0,.34,0,.48,0l.38,0,.26,0c0-.17.07-.34.09-.49s0-.32.07-.5a.94.94,0,0,1-.27,0l-.38,0-.48,0,.32-1.6.67,0,.34,0,.24,0c0-.1,0-.21.06-.33s.07-.25.1-.36a2.75,2.75,0,0,1,.11-.41l-2.65.35-1.2,6.27Z"/><path class="cls-1" d="M10.58,38a7.18,7.18,0,0,0,1.24-2.14,9.83,9.83,0,0,0,.63-3.09l-1.2.21c-.45.07-.88.14-1.28.18l-1.44.18L8.25,35l1.67-.24a2.25,2.25,0,0,1-.18.92,2.78,2.78,0,0,1-.44.73,2,2,0,0,1-.59.47,1.38,1.38,0,0,1-.64.14.89.89,0,0,1-.74-.47A3.12,3.12,0,0,1,7,35.06a11,11,0,0,1,.27-2.25,14.59,14.59,0,0,1,.65-2.14,6.6,6.6,0,0,1,.86-1.6c.31-.43.6-.63.86-.63a.71.71,0,0,1,.55.3,2.52,2.52,0,0,1,.39,1l2.22-.46a4.56,4.56,0,0,0-.15-1.19,2.64,2.64,0,0,0-.45-1,2.26,2.26,0,0,0-.79-.68,2.55,2.55,0,0,0-1.14-.24,4.09,4.09,0,0,0-1.91.58,6,6,0,0,0-1.87,1.69,9.27,9.27,0,0,0-1.39,2.78,11.52,11.52,0,0,0-.47,3.83A8.39,8.39,0,0,0,4.9,37a4.9,4.9,0,0,0,.61,1.38,2.59,2.59,0,0,0,.9.85,2.17,2.17,0,0,0,1.07.31A3.24,3.24,0,0,0,9,39.21,4.63,4.63,0,0,0,10.58,38Z"/><path class="cls-1" d="M35.14,26.32l-1,.06c-.37,0-.72.06-1.07.07l-2.51,10.2h-.34c0-.33.11-.72.17-1.18s.13-1,.2-1.51.13-1.1.21-1.69.18-1.36.32-2.32.3-2.19.5-3.71c-.42.05-.76.08-1,.09l-1,.05c-.34,0-.66,0-1,0,0,.61-.07,1.28-.12,2s-.1,1.47-.17,2.24-.13,1.54-.21,2.32-.16,1.51-.25,2.21c-.18,1.66-.37,3.34-.58,5l4.77-.5q.7-2.52,1.41-4.95c.21-.7.42-1.42.64-2.17s.45-1.51.69-2.25.46-1.47.68-2.17.44-1.34.65-1.92C35.84,26.27,35.5,26.3,35.14,26.32Z"/><path class="cls-1" d="M39.62,39.64,40,37.45l-2.9.35.85-3.52,1.14,0h.9c.31,0,.52,0,.66,0,.09-.37.16-.73.24-1.08s.13-.72.21-1.1a4.46,4.46,0,0,1-.69,0h-.91l-1.16,0,.89-3.54h1.63l.8,0,.6,0c0-.22.12-.47.2-.75l.24-.81c.09-.3.19-.62.31-.91l-6.46.6L33.34,40.31Z"/><path class="cls-1" d="M22.44,26.77c-.15.58-.33,1.19-.53,1.87s-.4,1.37-.62,2.09-.43,1.43-.64,2.16l-.6,2c-.31,1-.61,2-.92,3.07-.18-.45-.34-.91-.51-1.35S18.21,35.58,18,35s-.43-1.1-.63-1.59a5,5,0,0,0,1.11-.82,6.74,6.74,0,0,0,.93-1.13,6.18,6.18,0,0,0,.66-1.34,4.27,4.27,0,0,0,.26-1.45,3.34,3.34,0,0,0-.09-.92,1.69,1.69,0,0,0-.35-.71,1.6,1.6,0,0,0-.69-.47,3.18,3.18,0,0,0-1.11-.16,16.89,16.89,0,0,0-2.23.18,11.5,11.5,0,0,0-2.06.5c0,.54-.12,1.12-.21,1.77s-.2,1.31-.3,2-.2,1.36-.32,2.05-.22,1.35-.32,2c-.26,1.47-.52,3-.8,4.46l2.6-.61c.09-.62.19-1.23.29-1.82s.16-1,.25-1.55.17-1,.24-1.38l.22-.06a2.49,2.49,0,0,0,.08.5c0,.21.1.46.16.74s.14.57.22.88.14.62.22.92c.17.72.38,1.49.59,2.3L19,38.55l-.3,1,1.07-.09c.29,0,.61,0,.95-.08l.89-.07.73-2.56,1.52,0c0,.24-.05.52-.09.86s-.07.68-.12,1-.11.77-.16,1.16l.95-.12,1-.12c.36,0,.72,0,1.07-.1.12-1.88.24-3.67.35-5.37.05-.74.11-1.49.17-2.25s.11-1.5.17-2.21.11-1.37.17-2,.12-1.12.16-1.54c-.82.17-1.67.3-2.53.4Zm-6,4.82a2.43,2.43,0,0,1-.77.28L16.17,29h.73l.52,0a2.18,2.18,0,0,1,.47.09.75.75,0,0,1,.33.18.44.44,0,0,1,.12.32,1.12,1.12,0,0,1-.32.68,4.58,4.58,0,0,1-.73.73A5.15,5.15,0,0,1,16.4,31.59Zm8.11-1.27c-.08.73-.16,1.41-.22,2l-.09.79c0,.27-.06.52-.08.75s0,.43-.06.6,0,.31,0,.38l-.25,0h-1l1.18-4.63.45-1.61.27,0Z"/><path class="cls-1" d="M13.52,47l.56-1.23c.43-.92.88-1.86,1.35-2.81l-2.49-.73c-.21.67-.41,1.31-.61,1.91s-.34,1-.53,1.58-.35,1-.47,1.35V44.87l0-2.89-2.51.89c0,.49.08.94.11,1.34s0,.87.09,1.39.08,1,.12,1.61.06,1.1.08,1.65,0,1,.05,1.51L8.59,53.5l2.57-.06c.1-.35.2-.69.29-1s.14-.59.21-.92.14-.63.19-.91.31-.69.5-1.07.38-.79.57-1.21Z"/><path class="cls-1" d="M14.47,54l.82,0,.63-2.29,1.4.14c0,.21-.05.48-.08.77s0,.61-.09.92-.09.69-.14,1l.87-.05.89-.06c.33,0,.65,0,1,0,.09-1.7.17-3.33.24-4.87.05-.66.08-1.33.13-2s.08-1.36.12-2,.09-1.24.13-1.78.09-1,.13-1.38c-.75.1-1.52.17-2.31.2s-1.53.07-2.27.08c-.13.51-.29,1.06-.46,1.66s-.35,1.22-.54,1.86-.37,1.28-.56,1.92-.35,1.24-.52,1.82c-.41,1.37-.81,2.74-1.22,4.13.33,0,.65,0,1,0ZM17.34,46l.38-1.44H18L17.86,46c-.07.66-.13,1.27-.17,1.85,0,.23-.05.47-.07.71s0,.47-.07.68,0,.39-.05.54,0,.28,0,.34h-.23l-.35,0h-.58Z"/><path class="cls-1" d="M27.85,47.86a5.68,5.68,0,0,0,.71-1.24,4.17,4.17,0,0,0,.3-1.39,3.51,3.51,0,0,0-.08-.88,1.75,1.75,0,0,0-.35-.71,1.78,1.78,0,0,0-.7-.5,3.56,3.56,0,0,0-1.15-.22,16.19,16.19,0,0,0-2.31,0,11.57,11.57,0,0,0-2.13.34c-.07.51-.15,1.07-.26,1.69s-.22,1.25-.34,1.9-.24,1.3-.37,2-.26,1.28-.36,1.87c-.3,1.4-.6,2.81-.92,4.24l2.7-.41c.11-.59.22-1.17.33-1.73s.19-1,.29-1.48.2-1,.27-1.3l.23-.05c0,.11,0,.27.07.49s.1.44.16.72.13.56.2.86.15.61.22.9c.17.71.36,1.45.57,2.25l2.69-.63c-.22-.6-.44-1.19-.67-1.78s-.4-1.05-.62-1.62-.43-1.08-.63-1.56a4.82,4.82,0,0,0,1.16-.71A6.43,6.43,0,0,0,27.85,47.86ZM26.46,46.6a5.65,5.65,0,0,1-.77.66,6,6,0,0,1-.93.51A2.31,2.31,0,0,1,24,48l.61-2.73h.36l.39,0,.54.05a2.11,2.11,0,0,1,.48.12.74.74,0,0,1,.34.19.4.4,0,0,1,.12.32A1,1,0,0,1,26.46,46.6Z"/><path class="cls-1" d="M36.21,44.65a3.21,3.21,0,0,0-1.12-.93,4.43,4.43,0,0,0-1.71-.41,10.42,10.42,0,0,0-1.68,0c-.54,0-1.08.12-1.6.18-.1.51-.21,1.08-.35,1.71s-.28,1.28-.41,2-.3,1.36-.46,2-.29,1.34-.43,2c-.36,1.49-.71,3-1.07,4.52l.48.11a4.17,4.17,0,0,0,.49.08,5.63,5.63,0,0,0,2.25-.18,7,7,0,0,0,2-.89,8.08,8.08,0,0,0,1.71-1.45,10.16,10.16,0,0,0,1.33-1.83,10.9,10.9,0,0,0,.89-2,7.37,7.37,0,0,0,.39-2A5.71,5.71,0,0,0,36.8,46,3.68,3.68,0,0,0,36.21,44.65Zm-2.3,3.74a8.76,8.76,0,0,1-.39,1.24A14.2,14.2,0,0,1,32.93,51a12.12,12.12,0,0,1-.72,1.28,6.85,6.85,0,0,1-.82,1,3.66,3.66,0,0,1-.86.67c.17-.81.33-1.56.5-2.24s.34-1.35.52-2,.33-1.27.51-1.9.34-1.3.5-2a1.63,1.63,0,0,1,1.18.46,1.43,1.43,0,0,1,.35,1.08A5.86,5.86,0,0,1,33.91,48.39Z"/><path class="cls-1" d="M27.85,58.33c-.07.09-.16.2-.26.35l-.32.42-.31.41-.22.3h0c.06-.27.11-.51.16-.72s0-.18.07-.28,0-.18,0-.25,0-.14.05-.19l0-.11-.46-.07-.41-.08-.4-.07c0,.23-.07.48-.11.76s-.09.56-.15.84-.11.58-.18.88-.12.57-.18.84c-.14.63-.3,1.27-.47,1.93h1.23c.05-.24.11-.48.16-.71s.09-.39.14-.6.09-.38.13-.53l.15-.13q0,.48.12,1c0,.35.08.7.12,1l.42,0,.79.11.36.06c-.14-.5-.28-1-.42-1.47s-.26-1-.36-1.5l.24-.31.29-.36.31-.37c.1-.13.22-.25.32-.37.23-.28.48-.56.74-.85h-.79Z"/><path class="cls-1" d="M21.54,58.94a2.46,2.46,0,0,0,0-.54,1.61,1.61,0,0,0-.17-.51A1,1,0,0,0,21,57.5a1.14,1.14,0,0,0-.54-.21,1.53,1.53,0,0,0-.74.1,2.62,2.62,0,0,0-.66.42,3.89,3.89,0,0,0-.56.64,4,4,0,0,0-.43.78,5.28,5.28,0,0,0-.28.85,3.4,3.4,0,0,0-.1.82,2.6,2.6,0,0,0,.07.67,1.53,1.53,0,0,0,.23.48,1.22,1.22,0,0,0,.33.31,1.4,1.4,0,0,0,.42.15,1.71,1.71,0,0,0,.59,0,2.23,2.23,0,0,0,.61-.28,3.06,3.06,0,0,0,.6-.5A3.18,3.18,0,0,0,21,61a4.43,4.43,0,0,0,.36-.91A4.38,4.38,0,0,0,21.54,58.94Zm-1.13,1.14a2.41,2.41,0,0,1-.27.66,1.48,1.48,0,0,1-.42.5.78.78,0,0,1-.58.14.33.33,0,0,1-.16-.07.74.74,0,0,1-.13-.12.67.67,0,0,1-.07-.17.5.5,0,0,1,0-.16,3.51,3.51,0,0,1,0-.41,3,3,0,0,1,.12-.47,4.69,4.69,0,0,1,.21-.46,1.87,1.87,0,0,1,.27-.4,1.67,1.67,0,0,1,.35-.26.82.82,0,0,1,.44-.06.27.27,0,0,1,.18.08.62.62,0,0,1,.11.17c0,.06,0,.12,0,.18v.2A2.24,2.24,0,0,1,20.41,60.08Z"/><path class="cls-1" d="M25.23,59.39a3.39,3.39,0,0,0,0-.55,2.1,2.1,0,0,0-.16-.52,1.1,1.1,0,0,0-.35-.39,1,1,0,0,0-.56-.21,1.59,1.59,0,0,0-.75.1,2.57,2.57,0,0,0-.69.41,4.77,4.77,0,0,0-.59.66,4.6,4.6,0,0,0-.44.78,6.22,6.22,0,0,0-.29.86,3.15,3.15,0,0,0-.12.84,2.33,2.33,0,0,0,.07.68,1.53,1.53,0,0,0,.23.48,1.26,1.26,0,0,0,.33.32,1.59,1.59,0,0,0,.45.15,1.81,1.81,0,0,0,.6,0,2.71,2.71,0,0,0,.64-.28,3.59,3.59,0,0,0,.61-.51,3.24,3.24,0,0,0,.52-.72,4.11,4.11,0,0,0,.38-.93A4.45,4.45,0,0,0,25.23,59.39Zm-1.17,1.15a3.14,3.14,0,0,1-.28.67,1.68,1.68,0,0,1-.45.5.78.78,0,0,1-.59.15.38.38,0,0,1-.17-.08.49.49,0,0,1-.13-.12,1.38,1.38,0,0,1-.08-.17,1,1,0,0,1,0-.17,2.33,2.33,0,0,1,0-.41,2.26,2.26,0,0,1,.14-.47,1.92,1.92,0,0,1,.21-.46,1.74,1.74,0,0,1,.28-.41,1.41,1.41,0,0,1,.37-.27.83.83,0,0,1,.44-.06.31.31,0,0,1,.2.09.86.86,0,0,1,.1.16,1.29,1.29,0,0,1,0,.19c0,.07,0,.14,0,.2A3.25,3.25,0,0,1,24.06,60.54Z"/><path class="cls-1" d="M17.45,59.84a1.5,1.5,0,0,0-.18-.24.93.93,0,0,0-.19-.17,1.42,1.42,0,0,0,.36-.16,1.52,1.52,0,0,0,.32-.3,1.44,1.44,0,0,0,.23-.4,1.22,1.22,0,0,0,.09-.51,1,1,0,0,0-.1-.48,1.16,1.16,0,0,0-.28-.34,1,1,0,0,0-.36-.2A1.39,1.39,0,0,0,17,57a5.72,5.72,0,0,0-.82,0c-.26,0-.52,0-.76,0-.12.84-.25,1.67-.39,2.5a21.36,21.36,0,0,1-.53,2.4,2.4,2.4,0,0,0,.48.11,3.89,3.89,0,0,0,.6,0,3.07,3.07,0,0,0,.6-.07,3.45,3.45,0,0,0,.57-.18,1.66,1.66,0,0,0,.48-.29,1.41,1.41,0,0,0,.33-.4,1.18,1.18,0,0,0,.12-.53,1.23,1.23,0,0,0-.05-.39A1,1,0,0,0,17.45,59.84Zm-.74.6a.57.57,0,0,1-.26.16.88.88,0,0,1-.32.07,1.58,1.58,0,0,1-.3,0,1.86,1.86,0,0,1,.05-.3c0-.08,0-.17,0-.24a2.21,2.21,0,0,0,.05-.25,2.08,2.08,0,0,0,0-.3h.11l.23,0a1.55,1.55,0,0,1,.22.12.52.52,0,0,1,.17.16.41.41,0,0,1,.07.22A.42.42,0,0,1,16.71,60.44ZM17,58.51a.75.75,0,0,1-.2.11l-.28.07-.31.05c0-.06,0-.12,0-.2a1.55,1.55,0,0,1,.05-.23,1.43,1.43,0,0,1,0-.22.84.84,0,0,1,0-.18h.07l.2,0,.21.08a.54.54,0,0,1,.16.14.22.22,0,0,1,.06.18A.18.18,0,0,1,17,58.51Z"/></g></g></svg>