<svg xmlns="http://www.w3.org/2000/svg" viewBox="0 0 119.92 39.7"><defs><style>.cls-1{fill:#fff;}</style></defs><title>logo</title><g id="Layer_2" data-name="Layer 2"><g id="Layer_1-2" data-name="Layer 1"><path class="cls-1" d="M34,27.79c0-1.3.06-2.58.08-3.84,0-.53,0-1.08,0-1.66v-1.7c0-.56,0-1.1,0-1.62s0-1-.06-1.43a5.49,5.49,0,0,0-.8.11,2.44,2.44,0,0,1-.81.05c0-.19-.06-.4-.1-.64s-.08-.48-.11-.72-.08-.55-.12-.84l.9-.11.89-.15c.58-.1,1.14-.22,1.67-.34l1.49-.38c.45-.12.9-.25,1.33-.39l0,1c0,.27,0,.54,0,.83s0,.52,0,.72a4.62,4.62,0,0,1-.73.29c-.25.07-.5.16-.74.25,0,.4,0,.84,0,1.33s0,1,0,1.52,0,1,0,1.59,0,1.05,0,1.54c0,1.17.07,2.36.13,3.6Z"/><path class="cls-1" d="M38.83,26.94c0-1.62,0-3.22,0-4.78,0-.66,0-1.34,0-2.06s0-1.41,0-2.1,0-1.37,0-2,0-1.24,0-1.78l2.73-.69c0,.83-.08,1.7-.12,2.6s0,1.77-.06,2.62L43,18.24q0-1.26,0-2.43c0-.78,0-1.59.07-2.44.25-.09.54-.18.85-.27l.87-.23,1-.27c-.06.55-.11,1.13-.15,1.77s0,1.29-.07,2,0,1.37,0,2.06,0,1.35,0,2c0,1.5.05,3,.11,4.57L43,25.73q0-1.07,0-2.07c0-.56,0-1.15,0-1.77s0-1.14,0-1.57l-1.63.46c0,.44,0,1,0,1.55s0,1.15,0,1.68,0,1.27,0,1.91Z"/><path class="cls-1" d="M46.36,25.56,46.4,13l5.31-1.44a7.17,7.17,0,0,0-.07.81c0,.22,0,.46,0,.7s0,.46,0,.65l-.48.11-.68.14-.72.14-.64.12,0,3.16,1-.23.76-.16a4,4,0,0,0,.58-.12c0,.33,0,.65,0,1s0,.63,0,1l-.55.13-.77.16-1,.21v3.25l2.42-.84.18,2Z"/><path class="cls-1" d="M63.35,18.87a8.1,8.1,0,0,1-1,2.41,5.59,5.59,0,0,1-1.48,1.6,4.17,4.17,0,0,1-1.65.75A3,3,0,0,1,58,23.57a2.74,2.74,0,0,1-1.14-.65A4.36,4.36,0,0,1,56,21.65a7.13,7.13,0,0,1-.59-1.92,10.84,10.84,0,0,1-.07-4,9.29,9.29,0,0,1,1.1-3,6.84,6.84,0,0,1,1.78-2,5,5,0,0,1,2-.9,3,3,0,0,1,1.23,0,2.46,2.46,0,0,1,1.58,1.35,4.36,4.36,0,0,1,.35,1.11L61,13.2a2.25,2.25,0,0,0-.58-.9.76.76,0,0,0-.64-.19c-.28.05-.56.31-.83.78a7.27,7.27,0,0,0-.67,1.73,13.78,13.78,0,0,0-.37,2.24A10.51,10.51,0,0,0,58,19.18a2.74,2.74,0,0,0,.59,1.45,1,1,0,0,0,.89.31,1.64,1.64,0,0,0,.68-.3,2.23,2.23,0,0,0,.57-.61,3,3,0,0,0,.35-.82,2.32,2.32,0,0,0,0-.95l-1.78.6,0-1.75,1.53-.49c.43-.13.87-.28,1.34-.45l1.23-.46A9.05,9.05,0,0,1,63.35,18.87Z"/><path class="cls-1" d="M64,22.37c0-1.57.06-3.11.08-4.6,0-.64,0-1.3,0-2s0-1.37,0-2,0-1.33,0-2,0-1.2-.07-1.71a13.19,13.19,0,0,1,2-.84,20,20,0,0,1,2.22-.55,3.34,3.34,0,0,1,1.12,0,1.63,1.63,0,0,1,.77.31,1.81,1.81,0,0,1,.47.59,3.28,3.28,0,0,1,.25.82,4.32,4.32,0,0,1,0,1.39,5.62,5.62,0,0,1-.42,1.36,6.41,6.41,0,0,1-.73,1.24,5.12,5.12,0,0,1-1,1l.93,1.37.94,1.43c.32.53.66,1.06,1,1.58l-2.48,1.4c-.36-.68-.68-1.33-1-1.93l-.39-.77-.36-.76c-.12-.23-.22-.45-.3-.64a3.54,3.54,0,0,1-.17-.47l-.21.11c0,.37,0,.82,0,1.32s0,1,0,1.47,0,1.11,0,1.68Zm2.67-8.14a2.5,2.5,0,0,0,.74-.42,5,5,0,0,0,.79-.74,4.46,4.46,0,0,0,.61-.82,1.12,1.12,0,0,0,.2-.69.41.41,0,0,0-.18-.27.85.85,0,0,0-.36-.12,2.72,2.72,0,0,0-.49,0l-.53.08-.38.08-.35.07Z"/><path class="cls-1" d="M76.79,19.83l-.9.32L75.83,19c0-.33,0-.65-.08-1s0-.6-.07-.83l-1.49.27L74,20.06l-.87.27-.94.29L71.1,21c.18-1.6.36-3.17.54-4.72.07-.65.14-1.32.22-2s.16-1.42.23-2.12.16-1.38.23-2,.13-1.24.17-1.78l2.33-.63c.79-.23,1.55-.48,2.29-.75,0,.37.07.82.13,1.37s.13,1.15.21,1.79.17,1.32.26,2L78,14.15c.23,1.58.47,3.26.72,5-.33.12-.66.23-1,.33Zm-2.5-4.13.25-.06.37-.08.37-.09a.91.91,0,0,0,.23-.07,3.14,3.14,0,0,1,0-.35c0-.17,0-.36,0-.57s0-.45-.06-.71,0-.5-.07-.74c-.06-.59-.12-1.23-.17-1.91L75,9.61l-.25.07-.13,1.54Z"/><path class="cls-1" d="M79.91,19.62c-.14-1.62-.29-3.21-.44-4.77-.06-.65-.13-1.33-.21-2s-.15-1.42-.24-2.12-.17-1.36-.27-2-.18-1.24-.27-1.78l.88-.17.85-.19.92-.24c.11,1.34.2,2.45.26,3.31s.12,1.57.16,2.11.09,1,.14,1.55.09,1,.12,1.39.06.8.08,1.1l.3-.06.27-9.43L83.39,6c.28-.08.58-.15.89-.22a8.05,8.05,0,0,0,.85-.22c-.07.53-.13,1.11-.19,1.74s-.11,1.29-.17,2-.11,1.37-.15,2.07-.09,1.38-.14,2c-.1,1.54-.19,3.11-.27,4.73Z"/><path class="cls-1" d="M85.48,18.46l0-12.54,5.31-1.44c0,.26,0,.53-.06.8s0,.46,0,.71,0,.45,0,.64l-.48.12-.67.14L88.83,7l-.64.11,0,3.17c.35-.09.68-.17,1-.23l.77-.16.58-.12c0,.33,0,.65,0,1s0,.64,0,1l-.55.12-.77.17-1,.21v3.25l2.42-.85.19,2Z"/><path class="cls-1" d="M92.44,16.92l.16-3.57c-.09-.49-.19-1-.32-1.6S92,10.61,91.89,10l-.4-1.67c-.14-.53-.25-1-.35-1.42s-.22-.86-.35-1.35L93.38,4l.38,2.09c0,.28.1.57.16.87s.1.58.14.87.1.55.14.8.09.46.12.64c.07-.42.17-.93.28-1.54s.2-1.19.28-1.76.21-1.37.31-2.1L98,4c-.32,1.06-.62,2.12-.91,3.18-.12.45-.24.92-.38,1.41s-.27,1-.4,1.47l-.4,1.42c-.13.46-.24.89-.35,1.28s0,.65,0,1,0,.72-.07,1.06-.07.79-.12,1.18Z"/><path class="cls-1" d="M103,15.07l-.9.32-.06-1.13c0-.33,0-.65-.08-1s-.06-.6-.07-.83l-1.49.27-.24,2.58-.86.27-.94.29-1.05.33c.18-1.6.36-3.17.54-4.72.07-.65.14-1.32.22-2s.15-1.42.23-2.12.15-1.37.23-2,.12-1.24.17-1.78l2.33-.63c.78-.23,1.55-.48,2.29-.75,0,.37.07.83.13,1.37s.13,1.15.21,1.79.17,1.32.26,2l.27,2.07c.23,1.58.47,3.26.72,5-.33.12-.67.23-1,.33Zm-2.5-4.13.25-.06.37-.08.36-.09.24-.06c0-.07,0-.19,0-.36s0-.36,0-.57,0-.45-.07-.7l-.06-.75c-.06-.59-.12-1.23-.17-1.91l-.17-1.51-.25.07-.13,1.54Z"/><path class="cls-1" d="M105.19,14.89c0-1.57.06-3.1.08-4.6,0-.63,0-1.29,0-2s0-1.37,0-2.05,0-1.32,0-1.95,0-1.19-.07-1.71a12.35,12.35,0,0,1,2-.83,17.4,17.4,0,0,1,2.21-.55,3.43,3.43,0,0,1,1.13-.05,1.6,1.6,0,0,1,.76.32,1.52,1.52,0,0,1,.47.59,3.16,3.16,0,0,1,.25.82,3.76,3.76,0,0,1,0,1.38,5.49,5.49,0,0,1-.42,1.36,6.24,6.24,0,0,1-.72,1.25,4.84,4.84,0,0,1-1,1q.44.63.93,1.38c.33.5.65,1,.94,1.43l1,1.58-2.48,1.4c-.36-.69-.69-1.34-1-1.94l-.38-.77c-.13-.26-.26-.51-.37-.75s-.21-.45-.29-.64-.14-.35-.18-.48l-.21.11c0,.38,0,.82,0,1.33s0,1,0,1.46,0,1.12,0,1.68Zm2.67-8.14a2.29,2.29,0,0,0,.74-.42,5.5,5.5,0,0,0,.8-.73,5.43,5.43,0,0,0,.61-.82,1.09,1.09,0,0,0,.19-.69.39.39,0,0,0-.17-.28.81.81,0,0,0-.37-.11,2.6,2.6,0,0,0-.48,0,5.24,5.24,0,0,0-.53.08l-.39.08-.35.07Z"/><path class="cls-1" d="M119.9,5.14a11.23,11.23,0,0,1-.36,2.11,11.05,11.05,0,0,1-.79,2.09,9.1,9.1,0,0,1-1.25,1.85,7.85,7.85,0,0,1-1.67,1.42,5.75,5.75,0,0,1-2.09.8l-.48.06-.49,0c0-1.63,0-3.21.07-4.76,0-.65,0-1.32,0-2s0-1.39,0-2.07,0-1.33,0-2,0-1.18,0-1.68c.47-.18,1-.36,1.44-.53a10.45,10.45,0,0,1,1.51-.4,3.81,3.81,0,0,1,1.62,0,2.76,2.76,0,0,1,1.19.61,3.54,3.54,0,0,1,.8,1.09,5.36,5.36,0,0,1,.45,1.42A7.59,7.59,0,0,1,119.9,5.14Zm-4.4-.53c0,.64,0,1.28-.07,1.93s-.05,1.33-.06,2,0,1.48,0,2.31A3.47,3.47,0,0,0,116,10a7.11,7.11,0,0,0,.53-1.21A10.43,10.43,0,0,0,117,7.38c.11-.49.19-1,.25-1.42a9.83,9.83,0,0,0,.09-1.27,5,5,0,0,0-.06-1,1.39,1.39,0,0,0-.53-.92,1.51,1.51,0,0,0-1.17-.16C115.54,3.3,115.52,4,115.5,4.61Z"/><path class="cls-1" d="M70.26,35.4a3.72,3.72,0,0,1-.59,1.22,5.52,5.52,0,0,1-1,1.07,8.67,8.67,0,0,1-1.28.86A9,9,0,0,1,66,39.2a9.1,9.1,0,0,1-1.44.39,6.38,6.38,0,0,1-1.2.11,56.85,56.85,0,0,0,.22-6.25c0-2.08-.1-4.18-.18-6.28.57-.23,1.17-.45,1.79-.67a13.25,13.25,0,0,1,1.95-.5,4.49,4.49,0,0,1,.92-.06,2.28,2.28,0,0,1,.94.22,2.11,2.11,0,0,1,1.26,1.67,3.51,3.51,0,0,1,0,1.25,5,5,0,0,1-.36,1.13,4.08,4.08,0,0,1-.62.93,3.65,3.65,0,0,1-.78.66,2.1,2.1,0,0,1,.52.26,3.16,3.16,0,0,1,.54.44,2.51,2.51,0,0,1,.46.65,2.89,2.89,0,0,1,.3.9A3.07,3.07,0,0,1,70.26,35.4Zm-4.17-1.67V35c0,.22,0,.47,0,.77a6.48,6.48,0,0,0,.72-.26,3.46,3.46,0,0,0,.73-.4,2,2,0,0,0,.55-.6,1.06,1.06,0,0,0,.12-.77.8.8,0,0,0-.25-.48,1.37,1.37,0,0,0-.47-.27,2.2,2.2,0,0,0-.58-.1,3.36,3.36,0,0,0-.56,0l-.14,0-.12,0Zm0-4.56v.55c0,.19,0,.39,0,.58s0,.35,0,.49a5.62,5.62,0,0,0,1.35-.71,2,2,0,0,0,.42-.4.54.54,0,0,0,.11-.41.6.6,0,0,0-.23-.39,1,1,0,0,0-.45-.19,2.48,2.48,0,0,0-.54-.06,3.22,3.22,0,0,0-.48.05l-.17,0C66.1,28.84,66.1,29,66.11,29.17Z"/><path class="cls-1" d="M78.75,30.13a11.35,11.35,0,0,1-.38,2.41,9.73,9.73,0,0,1-.82,2.06,9.16,9.16,0,0,1-1.12,1.63,5.81,5.81,0,0,1-1.29,1.13,3.81,3.81,0,0,1-1.35.55,2.51,2.51,0,0,1-1.06,0,2.28,2.28,0,0,1-.92-.49,3.23,3.23,0,0,1-.74-1,5.59,5.59,0,0,1-.48-1.54,9.14,9.14,0,0,1-.12-2.06,15.59,15.59,0,0,1,.26-2.22,12.5,12.5,0,0,1,.65-2.16,11,11,0,0,1,1-1.9,6.6,6.6,0,0,1,1.33-1.44,3.69,3.69,0,0,1,1.63-.73,2.23,2.23,0,0,1,2.27.76,3.65,3.65,0,0,1,.6,1.06,6.21,6.21,0,0,1,.35,1.24A11.43,11.43,0,0,1,78.75,30.13ZM73.2,34.35a1.2,1.2,0,0,0,.25.33,1,1,0,0,0,.35.21.78.78,0,0,0,.4,0,2,2,0,0,0,1.27-.78,4.28,4.28,0,0,0,.76-1.47,7.82,7.82,0,0,0,.3-1.75,6.55,6.55,0,0,0-.07-1.63c0-.14-.06-.28-.11-.44a1.5,1.5,0,0,0-.18-.43.86.86,0,0,0-.3-.3.64.64,0,0,0-.46-.07,2,2,0,0,0-1,.46,3.15,3.15,0,0,0-.7.87,5.1,5.1,0,0,0-.45,1.15A8.82,8.82,0,0,0,73,31.78,6.22,6.22,0,0,0,73,33a6.46,6.46,0,0,0,.09,1A1.09,1.09,0,0,0,73.2,34.35Z"/><path class="cls-1" d="M87.17,28.6A11.45,11.45,0,0,1,86.79,31,9.86,9.86,0,0,1,86,33.07a9.16,9.16,0,0,1-1.12,1.63,6,6,0,0,1-1.3,1.14,3.89,3.89,0,0,1-1.34.55,2.4,2.4,0,0,1-1.07,0,2.31,2.31,0,0,1-.91-.49,3,3,0,0,1-.74-1A5.67,5.67,0,0,1,79,33.35a9.14,9.14,0,0,1-.12-2.06,15.29,15.29,0,0,1,.26-2.21,12.34,12.34,0,0,1,.65-2.17,10.36,10.36,0,0,1,1-1.9,6.54,6.54,0,0,1,1.33-1.43,3.71,3.71,0,0,1,1.63-.74,2.41,2.41,0,0,1,1.33.09,2.28,2.28,0,0,1,.94.67,3.71,3.71,0,0,1,.6,1.07A6,6,0,0,1,87,25.91,11.31,11.31,0,0,1,87.17,28.6Zm-5.56,4.23a1.4,1.4,0,0,0,.26.32,1,1,0,0,0,.35.21.68.68,0,0,0,.4,0,2,2,0,0,0,1.27-.77,4.4,4.4,0,0,0,.75-1.48A7.21,7.21,0,0,0,85,29.4a6.55,6.55,0,0,0-.07-1.63c0-.13-.06-.28-.11-.44a1.57,1.57,0,0,0-.18-.42,1,1,0,0,0-.3-.31.59.59,0,0,0-.46-.06,1.86,1.86,0,0,0-1,.45,3.06,3.06,0,0,0-.7.88A4.84,4.84,0,0,0,81.72,29a9.12,9.12,0,0,0-.26,1.24,7.23,7.23,0,0,0-.08,1.21,8.24,8.24,0,0,0,.1,1A1.56,1.56,0,0,0,81.61,32.83Z"/><path class="cls-1" d="M87.65,35.35c0-1.66.09-3.26.11-4.82,0-.67,0-1.36,0-2.08s0-1.43,0-2.13,0-1.38-.07-2-.07-1.25-.12-1.79l.9-.1.93-.11c.35,0,.69-.09,1-.15v.27c0,.13,0,.28,0,.47v.61c0,.22,0,.44,0,.67v1.74l.1,0c.08-.2.19-.49.34-.85s.31-.75.48-1.15.32-.8.47-1.17.29-.7.39-1l1.68-.47c.56-.16,1.12-.34,1.67-.53q-.62,1.21-1.17,2.4c-.16.33-.33.68-.49,1l-.49,1.06c-.16.35-.31.68-.44,1l-.37.87c.46,1.11,1,2.16,1.5,3.17l1.63,3.09-.8.12-.81.14-.95.18-1,.2c-.23-.72-.48-1.48-.75-2.27s-.52-1.55-.76-2.27l-.24.41q0,.54,0,1.32c0,.51,0,1,0,1.5s0,1.15,0,1.75Z"/><path class="cls-1" d="M16.72.18h0l-.34,0h-.07l-.17,0A15.45,15.45,0,0,0,13.73,0c-.65,0-1.61,0-1.61,0a11.64,11.64,0,0,0-3.73.8L8.17,1l.13.21.24,1.66,1.22.4L9.1,4.78l-.34.47.47,2-.9.59L8.27,9.1,8,8.42l.53-1.7-.85-.87L9,4.67,7.29,3.54l-.39-2-.24.14A13.73,13.73,0,0,0,0,12.79l0,.34.1,2.46,1.27,20,20,1.86h.19l2.79-1.36L27.33,16.8l.49-3.68C27.82,6.13,23.24,1,16.72.18Zm4.75,36.87L1.75,35.23.5,15.57.4,13.12l0-.31A13.4,13.4,0,0,1,6.62,2.2l.31,1.58,1.42.94L7.13,5.84l1,1L7.6,8.42l1,2.75.16-3.08,1-.64L9.19,5.34,9.44,5l.86-2L8.91,2.52l-.2-1.35a11.35,11.35,0,0,1,4.66-.7A10.48,10.48,0,0,1,15,.68c5.4,1.49,9.4,6.8,9.4,13.12l-.45,3.58Zm5-20.25L23.51,36.11l-1.38.73L25,13.78A13.8,13.8,0,0,0,20.66,3.6,11.24,11.24,0,0,0,14.76.43L14.3.36l-.46,0h0A15,15,0,0,1,16,.4a14.08,14.08,0,0,1,2.17.79,13.82,13.82,0,0,1,4,2.73,12.35,12.35,0,0,1,2.73,4,12.64,12.64,0,0,1,.7,2.32,14.81,14.81,0,0,1,.26,2.42c0,.21,0,.41,0,.61a3.82,3.82,0,0,1,0,.57l-.17,1.23-.32,2.44c-.22,1.63-.45,3.26-.65,4.89l-.61,4.89-.57,4.9.77-4.87L25,22.42c.25-1.62.47-3.25.7-4.88l.34-2.44.18-1.22a2.68,2.68,0,0,0,.05-.64c0-.22,0-.43,0-.62A14.83,14.83,0,0,0,26,10.14a13.38,13.38,0,0,0-.74-2.38A12,12,0,0,0,22.36,3.7,14.17,14.17,0,0,0,18.21,1,14,14,0,0,0,16.84.52a13.89,13.89,0,0,1,2.79.76l.24.11a12.13,12.13,0,0,1,3.86,2.88,13.07,13.07,0,0,1,3.21,8.85Z"/></g></g></svg>