<?xml version="1.0" standalone="no"?>
<!DOCTYPE svg PUBLIC "-//W3C//DTD SVG 1.1//EN" "http://www.w3.org/Graphics/SVG/1.1/DTD/svg11.dtd" >
<svg>
<metadata>
Created by FontForge 20090622 at Sat Dec  1 16:40:25 2018
 By deploy user
Typeface &#194;&#169; Press Gang studios. 2012. All Rights Reserved
</metadata>
<defs>
<font id="RoofRunners" horiz-adv-x="1014" >
  <font-face 
    font-family="Roof Runners"
    font-weight="400"
    font-stretch="normal"
    units-per-em="2048"
    panose-1="2 0 5 0 0 0 0 0 0 0"
    ascent="1638"
    descent="-410"
    x-height="1411"
    cap-height="1446"
    bbox="-119 -154 1669 1586"
    underline-thickness="150"
    underline-position="-142"
    unicode-range="U+0020-U+F002"
  />
<missing-glyph horiz-adv-x="1024" 
d="M100 0v1434h824v-1434h-824zM150 50h724v1334h-724v-1334zM325 1148q31 28 58 43q53 30 112 30q92 0 148 -47.5t56 -127.5q0 -49 -23 -98.5t-87 -129.5q-63 -80 -99 -132t-36 -99q0 -38 24 -133h-32q-35 97 -35 148q0 76 81.5 218t81.5 217q0 57 -33 90t-91 33
q-38 0 -69 -17q-26 -15 -56 -40v45zM389 334l57 58q11 10 20 10q10 0 22 -11l56 -60q9 -11 9 -20q0 -11 -10 -22l-56 -62q-14 -14 -21 -14q-11 0 -20 10l-61 71q-7 9 -7 18q0 10 11 22z" />
    <glyph glyph-name=".notdef" horiz-adv-x="1024" 
d="M100 0v1434h824v-1434h-824zM150 50h724v1334h-724v-1334zM325 1148q31 28 58 43q53 30 112 30q92 0 148 -47.5t56 -127.5q0 -49 -23 -98.5t-87 -129.5q-63 -80 -99 -132t-36 -99q0 -38 24 -133h-32q-35 97 -35 148q0 76 81.5 218t81.5 217q0 57 -33 90t-91 33
q-38 0 -69 -17q-26 -15 -56 -40v45zM389 334l57 58q11 10 20 10q10 0 22 -11l56 -60q9 -11 9 -20q0 -11 -10 -22l-56 -62q-14 -14 -21 -14q-11 0 -20 10l-61 71q-7 9 -7 18q0 10 11 22z" />
    <glyph glyph-name=".null" horiz-adv-x="0" 
 />
    <glyph glyph-name="nonmarkingreturn" horiz-adv-x="508" 
 />
    <glyph glyph-name="space" unicode=" " horiz-adv-x="508" 
 />
    <glyph glyph-name="space" unicode="&#xa0;" horiz-adv-x="508" 
 />
    <glyph glyph-name="exclam" unicode="!" horiz-adv-x="552" 
d="M323 1432l25 -33v-41q-109 -1060 -224 -1060h-33q-27 0 -33 108q0 152 165 918q37 108 100 108zM91 199h17q13 0 33 -33v-34q-28 -132 -83 -132q-58 71 -58 99q23 100 91 100z" />
    <glyph glyph-name="quotedbl" unicode="&#x22;" horiz-adv-x="672" 
 />
    <glyph glyph-name="numbersign" unicode="#" horiz-adv-x="1146" 
d="M560 1473h26q20 -7 20 -40h-7l7 -13q-7 -69 -20 -132h125q189 0 218 -52q0 -99 -376 -99l-39 -159q102 14 197 14h14q14 0 26 6q132 -10 132 -33q0 -73 -251 -92q-151 -23 -151 -40q-74 -238 -106 -244h-13q-16 0 -20 53l20 185q-106 0 -106 -27q-37 -166 -79 -211h-13
l-7 33v119l7 66h-33q-42 0 -86 -7q-59 7 -59 20v7q0 56 178 85q30 0 46 185q7 0 7 20l-13 -7h-119q-79 12 -79 27v6q0 72 198 106q52 0 52 72q41 132 66 132h7q13 0 20 -66l-13 -118q131 0 145 33q43 171 79 171zM368 1123h-39q-20 0 -46 -178h6q119 0 119 66l26 119z" />
    <glyph glyph-name="dollar" unicode="$" horiz-adv-x="901" 
d="M426 1586q21 -26 21 -100v-43l15 7h50q16 -19 107 -50v-15q0 -16 -7 -28q7 -14 7 -22q-55 -43 -64 -43q-81 29 -108 29q-12 -38 -21 -108q272 -123 272 -172q0 -98 -294 -143q-17 0 -43 -237q-37 -179 -64 -179q-11 0 -22 22v71q0 172 22 294q-115 0 -115 -43
q-48 -301 -86 -301q-18 20 -21 86l14 229h-108q-100 0 -100 29v22q0 40 229 93q0 41 29 215q-69 19 -115 72v43q21 57 115 57q42 0 50 79q22 107 43 107q15 -26 15 -57v-100q129 0 129 57q23 129 50 129zM290 1292v-14q14 0 50 -22v36h-50zM225 1156l-21 -158q15 0 107 14
v101zM411 1063v-29l36 7v7q-12 0 -36 15z" />
    <glyph glyph-name="percent" unicode="%" horiz-adv-x="1027" 
d="M817 1439h9q19 -3 19 -19v-74q0 -73 -631 -1114q-124 -186 -186 -232h-28v19q36 216 696 1309q26 64 121 111zM399 1318q67 0 102 -176v-28q0 -152 -222 -204q-177 34 -177 176v9q0 160 297 223zM204 1123v-9q0 -52 65 -93h56q83 19 83 47v9q-18 139 -92 139h-19
q-12 0 -93 -93zM659 752q177 -63 177 -195v-74q-37 -316 -279 -316h-9q-129 0 -149 204v10q0 223 260 371zM603 566q-46 -77 -46 -139q0 -24 19 -93h65q37 0 55 130q-18 102 -93 102z" />
    <glyph glyph-name="ampersand" unicode="&#x26;" horiz-adv-x="831" 
d="M327 1454q27 0 34 -139q-7 -101 -7 -111q6 0 153 28h14q16 0 21 -35q0 -63 -104 -257h55q146 0 146 -111v-7q0 -152 -236 -258q-55 -16 -55 -20q0 -341 -84 -341q-29 28 -42 153q7 80 7 153v35q-113 0 -180 69v14q0 49 34 49l223 -7q222 43 222 132q-35 21 -69 21
q-64 0 -264 -14l-14 21v20q0 61 132 98q78 74 97 160h-7q-156 -28 -285 -35q-118 0 -118 41q0 42 229 84q0 103 77 257h21z" />
    <glyph glyph-name="quotesingle" unicode="'" horiz-adv-x="346" 
d="M61 1439h26q60 -35 60 -123v-61q0 -153 -93 -228h-7q-11 0 -33 61q7 199 7 271l6 12l-6 13q0 32 40 55z" />
    <glyph glyph-name="parenleft" unicode="(" horiz-adv-x="601" 
d="M344 1439h32q11 0 24 -24v-24q-30 -106 -152 -352q-56 -214 -56 -431v-24q0 -217 176 -424q32 -58 32 -64q-22 -96 -88 -96q-84 0 -224 192q-88 169 -88 352q0 642 344 895z" />
    <glyph glyph-name="parenright" unicode=")" horiz-adv-x="636" 
d="M148 1418h9q158 0 263 -462q0 -40 9 -99q0 -362 -314 -841l-57 -16q-52 0 -58 66q0 38 132 272q124 290 124 437v33q0 154 -141 453v124q0 13 33 33z" />
    <glyph glyph-name="asterisk" unicode="*" horiz-adv-x="859" 
d="M381 1426h20q0 -23 7 -35q-27 -128 -69 -249q202 63 297 63q49 -10 49 -28q0 -67 -304 -152v-7q103 -140 103 -180v-14q-14 -27 -34 -27q-32 0 -180 173q-86 -204 -111 -208h-7v28q0 37 42 193h-7q-77 -20 -152 -20h-14q-14 0 -14 13v21q0 32 180 90v14q-90 153 -90 207
v14q14 28 41 28q29 -29 125 -152q75 200 118 228z" />
    <glyph glyph-name="plus" unicode="+" horiz-adv-x="824" 
d="M430 1237q10 0 31 -54v-23q0 -93 -15 -176h53q177 0 177 -54q0 -86 -246 -115q-15 0 -15 -8q-35 -276 -123 -276q-17 0 -30 92v8q0 45 15 176h-138q-101 0 -146 39v23q18 107 299 107h16q15 157 92 261h30z" />
    <glyph glyph-name="comma" unicode="," horiz-adv-x="384" 
d="M154 237q59 -14 59 -117q0 -223 -209 -274q-39 0 -39 46v6q0 35 78 111l-6 13q28 215 104 215h13z" />
    <glyph glyph-name="hyphen" unicode="-" horiz-adv-x="964" 
d="M222 979q488 0 562 -66l33 -39v-13q-81 -72 -196 -72q-621 0 -621 98q0 92 222 92z" />
    <glyph glyph-name="hyphen" unicode="&#xad;" horiz-adv-x="964" 
d="M222 979q488 0 562 -66l33 -39v-13q-81 -72 -196 -72q-621 0 -621 98q0 92 222 92z" />
    <glyph glyph-name="period" unicode="." horiz-adv-x="321" 
d="M115 203h26q44 -23 44 -71q-27 -132 -114 -132h-27q-44 23 -44 71q27 132 115 132z" />
    <glyph glyph-name="slash" unicode="/" horiz-adv-x="929" 
d="M710 1439h29q8 0 29 -29q0 -172 -593 -1274q-109 -136 -126 -136h-30q-19 0 -19 19q0 22 10 39q0 10 -10 10q0 140 574 1215q74 111 136 156z" />
    <glyph glyph-name="zero" unicode="0" horiz-adv-x="1160" 
d="M628 1397h50q240 0 264 -306v-8q0 -443 -355 -909q-151 -174 -331 -174q-256 0 -256 273v16q0 404 306 893q141 198 264 198q0 14 58 17zM149 331v-9q0 -148 157 -148h25q200 0 405 562q41 125 41 231v83q0 157 -182 157q-32 0 -223 -165q-105 -141 -190 -463
q-33 -157 -33 -248z" />
    <glyph glyph-name="one" unicode="1" horiz-adv-x="887" 
d="M673 1432q39 -11 39 -55q0 -25 -493 -1174q-55 -203 -149 -203h-7q-63 0 -63 63v15q0 34 235 509l242 548h-7q-117 -94 -188 -94l-8 15v24q0 30 297 266q60 86 102 86z" />
    <glyph glyph-name="two" unicode="2" 
d="M761 1425q104 -18 104 -145q-49 -366 -415 -872l-194 -221q196 27 477 27h76q35 -19 35 -55q-26 -104 -90 -104q-101 0 -623 -27h-27q-29 -28 -56 -28h-20q-11 0 -28 28v20q0 68 173 215l201 235q304 444 304 533q69 143 69 221q0 21 -28 42q-142 0 -373 -215
q-26 0 -42 -14h-13q-14 0 -14 14v28q85 181 332 290q85 28 152 28z" />
    <glyph glyph-name="three" unicode="3" horiz-adv-x="1083" 
d="M688 1432q96 -22 96 -96v-40q0 -126 -160 -344h72q194 0 240 -160q16 -55 16 -96v-72q0 -368 -384 -576q-104 -48 -216 -48q-247 0 -352 248v24q16 80 80 80q22 0 184 -144q38 -24 120 -24h48q254 0 368 312q8 42 8 80v72q0 144 -176 144q-35 0 -320 -88q-32 13 -32 56
q0 46 224 216q176 203 176 296q-12 32 -24 32q-94 0 -440 -168q-13 -8 -40 -8l-16 24v16q0 101 432 248q76 16 96 16z" />
    <glyph glyph-name="four" unicode="4" 
d="M827 1418h9q16 -3 16 -17l-8 -17q17 0 17 -25q0 -119 -245 -1241q-55 -118 -110 -118h-8q-28 0 -42 127q0 14 67 371q-312 -8 -439 -17q-84 15 -84 42v26q0 30 236 363q231 436 254 455l33 34h9q19 0 34 -84q0 -115 -347 -659h9q188 9 304 9h17q18 0 101 371
q101 323 160 372z" />
    <glyph glyph-name="five" unicode="5" horiz-adv-x="1125" 
d="M648 1432q79 0 128 -60v-17q-28 -85 -444 -85q-42 -179 -136 -409q307 111 426 111h94q256 -30 256 -239v-77q0 -279 -350 -554q-170 -102 -324 -102q-298 0 -298 341v17q0 12 26 26h25q174 -179 188 -179q76 -17 110 -17q320 0 478 392q0 48 8 59q0 179 -221 179
q-72 0 -554 -136q-34 13 -34 25v35q183 386 196 545q27 128 170 128z" />
    <glyph glyph-name="six" unicode="6" horiz-adv-x="943" 
d="M559 1432h8q15 -2 15 -16v-31q-39 -92 -299 -480v-8q101 55 181 55h40q236 -52 236 -315q0 -283 -252 -535q-135 -102 -260 -102q-151 0 -212 189q-16 34 -16 126v110q0 441 464 952q60 55 95 55zM157 401q0 -212 111 -212h7q210 0 292 330v79q0 119 -134 157h-24
q-116 0 -236 -165q-16 -70 -16 -189z" />
    <glyph glyph-name="seven" unicode="7" horiz-adv-x="1216" 
d="M939 1439q52 -18 52 -69v-26q0 -33 -310 -500q-346 -712 -422 -835l-18 -9h-34q-17 0 -17 17q0 386 508 1189h-569q-67 0 -129 87q0 76 172 129q75 8 767 17z" />
    <glyph glyph-name="eight" unicode="8" horiz-adv-x="1076" 
d="M716 1432q166 -27 166 -158q-8 -115 -181 -339q136 -105 136 -211v-38q0 -297 -324 -580q-153 -106 -272 -106q-233 23 -233 188q-8 0 -8 46v52q0 312 324 626q-15 69 -15 83q0 219 249 399q130 38 158 38zM437 1025q0 -20 38 -60q111 18 151 37q134 154 143 234
q0 30 -98 53q-181 0 -234 -256v-8zM490 799q0 -9 -75 -53h-46l-22 15q-204 -251 -204 -444q0 -144 151 -144q153 0 324 257q53 95 68 218q-61 151 -196 151z" />
    <glyph glyph-name="nine" unicode="9" horiz-adv-x="748" 
d="M509 1425q102 0 116 -109v-7q0 -229 -341 -1185q-57 -100 -95 -124q-15 0 -15 15v36q0 42 175 574q-63 -43 -109 -43h-51q-189 45 -189 189v58q0 161 182 414q177 182 327 182zM138 851q0 -86 109 -117q54 0 175 153q80 301 80 371v22l-37 7q-155 -47 -240 -189
q-87 -152 -87 -247z" />
    <glyph glyph-name="colon" unicode=":" horiz-adv-x="370" 
d="M133 692h9q26 -7 44 -62q-26 -124 -115 -124h-9q-26 6 -44 62q26 124 115 124zM115 204h27q44 -23 44 -71q-27 -133 -115 -133h-27q-44 23 -44 71q27 133 115 133z" />
    <glyph glyph-name="semicolon" unicode=";" horiz-adv-x="377" 
d="M123 664h40q26 -11 26 -46q0 -61 -59 -93h-40q-26 11 -26 47q0 61 59 92zM149 256q60 -14 60 -119q0 -226 -211 -277q-40 0 -40 46v7q0 35 79 112l-6 13q29 218 105 218h13z" />
    <glyph glyph-name="semicolon" unicode="&#x37e;" horiz-adv-x="377" 
d="M123 664h40q26 -11 26 -46q0 -61 -59 -93h-40q-26 11 -26 47q0 61 59 92zM149 256q60 -14 60 -119q0 -226 -211 -277q-40 0 -40 46v7q0 35 79 112l-6 13q29 218 105 218h13z" />
    <glyph glyph-name="less" unicode="&#x3c;" horiz-adv-x="1181" 
d="M831 1432h30q40 -16 40 -70q0 -114 -601 -651q343 -341 711 -501l20 -30v-50q0 -107 -140 -130h-20q-299 0 -861 591q-10 17 -10 40v40q0 87 340 370q378 382 491 391z" />
    <glyph glyph-name="equal" unicode="=" horiz-adv-x="887" 
d="M101 1193q7 0 7 -6l14 6h407q142 0 156 -40v-14q0 -95 -238 -95q0 -7 -122 -7q-292 0 -292 68v20q14 68 68 68zM115 820h20q482 -14 482 -61v-27q0 -75 -129 -75q-509 9 -509 68v13q0 82 136 82z" />
    <glyph glyph-name="greater" unicode="&#x3e;" 
d="M75 1411h18q54 0 393 -364q147 -140 308 -243q28 -47 28 -75v-38q0 -131 -644 -654q-77 -37 -94 -37h-28q-37 15 -37 65q0 101 551 598v10q-379 233 -542 570l-28 93q11 75 75 75z" />
    <glyph glyph-name="question" unicode="?" horiz-adv-x="943" 
d="M426 1425q230 0 311 -221l16 -107q0 -247 -360 -466q-94 -83 -205 -246q-52 -16 -65 -16q-49 16 -49 65v8q42 186 295 385q204 117 204 189v40q0 151 -188 172h-25q-181 0 -294 -147h-33q-12 0 -25 25q0 97 148 245q112 74 270 74zM106 188q50 0 50 -57v-16
q-14 -115 -107 -115q-49 0 -49 57v25q27 106 106 106z" />
    <glyph glyph-name="at" unicode="@" horiz-adv-x="1502" 
d="M783 1425h32q367 0 486 -280q17 -57 17 -99v-25q0 -235 -264 -453q-105 -49 -206 -49q-164 27 -164 99h-9q-122 -99 -230 -99h-25q-71 0 -91 107q0 231 396 387q99 -23 99 -33q16 0 16 -41v-41q0 -33 -25 -140v-25q0 -33 99 -41q197 0 256 296q0 110 -173 198
q-100 33 -231 41q-333 0 -560 -469l-17 -132q0 -275 412 -387q77 -25 173 -25h9q159 0 345 124q51 16 75 33h33q17 -4 32 -42q-59 -170 -329 -288q-95 -41 -222 -41h-9q-456 0 -667 354q-41 81 -41 206q0 429 494 791q138 74 289 74zM486 675q93 0 181 116q8 45 8 66
q-189 -112 -189 -182z" />
    <glyph glyph-name="A" unicode="A" horiz-adv-x="999" 
d="M712 1432q71 -9 71 -71q35 -936 35 -1228q-48 -106 -133 -106q-51 0 -62 98q0 136 -9 373q-327 -73 -365 -89q-117 -371 -196 -409h-17q-29 0 -36 89q151 739 587 1245q62 98 125 98zM587 1067q-144 -218 -249 -435h9q246 73 258 88v9q0 45 -9 329v9h-9z" />
    <glyph glyph-name="B" unicode="B" horiz-adv-x="1258" 
d="M760 1432q300 0 300 -129v-25q0 -132 -259 -323h65q218 -25 218 -186v-17q0 -226 -372 -493q-158 -97 -631 -259h-16q-65 0 -65 73q0 18 8 32q0 8 -8 8q49 1101 105 1101q16 59 73 89q0 62 485 129h97zM227 1181v-8q0 -124 -9 -340h9q410 189 639 381v8l-211 16
q-172 -16 -428 -57zM162 235h8q621 223 679 380q41 42 41 81q-21 40 -65 40h-81q-87 0 -469 -81q-81 0 -81 -48q-8 -193 -32 -372z" />
    <glyph glyph-name="C" unicode="C" horiz-adv-x="1209" 
d="M685 1432q236 0 267 -142q-24 -71 -45 -71h-53q-139 35 -178 35h-71q-229 0 -409 -445q-36 -140 -36 -231v-44q0 -246 231 -312q67 -17 125 -17h9q136 0 400 195q16 9 36 9q53 -20 53 -71q0 -142 -418 -320q-80 -18 -116 -18q-250 0 -409 205q-71 154 -71 293
q0 525 463 881q146 53 222 53z" />
    <glyph glyph-name="D" unicode="D" horiz-adv-x="1265" 
d="M211 1460h8q40 -51 51 -51q85 26 194 26h68q565 -55 565 -338q0 -328 -709 -945q-260 -152 -329 -152h-42q-17 0 -17 17v17q2 42 17 42l-9 42v9q104 1215 127 1215q0 50 42 76q0 25 34 42zM262 1241v-9q-85 -905 -110 -1046h8q167 66 439 354q329 342 329 506
q0 133 -489 203h-17q-92 -8 -160 -8z" />
    <glyph glyph-name="E" unicode="E" horiz-adv-x="1509" 
d="M1288 1453q14 -21 24 -102q-63 -102 -79 -102l-809 -47q0 -25 -78 -330q0 28 510 55q47 -20 47 -71q0 -165 -314 -165q-56 0 -306 -70q-87 -343 -87 -354q367 94 833 173q58 -16 79 -55v-16q-55 -55 -102 -149q-153 -55 -841 -212h-39l-32 23q0 -12 -31 -31h-24
q-18 0 -39 71q0 42 157 730q47 290 118 519q55 86 149 86q93 16 864 47z" />
    <glyph glyph-name="F" unicode="F" horiz-adv-x="1376" 
d="M1133 1469q41 -14 41 -55v-34q-31 -110 -110 -110q-603 -41 -638 -48l-55 -220h7q117 42 439 103q24 -61 48 -61v-21q0 -22 -48 -76q0 -54 -206 -75q-165 -41 -275 -41h-6q-158 -722 -179 -776q-41 -55 -82 -55h-28q-41 24 -41 62q165 869 309 1297q89 83 302 83
q467 27 522 27z" />
    <glyph glyph-name="G" unicode="G" horiz-adv-x="1397" 
d="M844 1431h40q284 0 284 -81q0 -32 -54 -60q-43 0 -257 20q-243 -36 -243 -68q-285 -137 -432 -553q-20 -66 -27 -129q0 -132 129 -303q113 -75 175 -75q398 0 560 581h-6q-40 0 -446 -95q-54 16 -54 75q0 121 257 148q265 68 371 68q54 -24 54 -75q-30 -286 -243 -594
q-209 -290 -554 -290q-190 0 -324 223q-74 143 -74 270q0 231 311 655q154 155 290 202q0 43 243 81z" />
    <glyph glyph-name="H" unicode="H" horiz-adv-x="1174" 
d="M284 1488h30q31 0 31 -107q-123 -719 -123 -744h8q131 61 491 145q115 556 138 576q14 0 77 69l15 7q21 0 54 -61q15 -2 15 -15q-184 -898 -276 -1212q-64 -108 -107 -108q-17 1 -46 85q15 138 84 460h-8q-344 -92 -460 -92q0 8 -8 8q-55 -371 -69 -415q-41 -84 -84 -84
q-11 0 -38 54q-8 0 -8 15q156 1419 284 1419z" />
    <glyph glyph-name="I" unicode="I" horiz-adv-x="1006" 
d="M745 1446q108 -39 108 -58q0 -71 -173 -108h-65l-225 -1034v-22q48 15 138 22q56 0 79 -94q-65 -130 -245 -130l-203 -22q-159 16 -159 51v14q0 69 224 137q116 678 246 1063h-22q-209 0 -209 44v7q0 73 173 101q129 15 333 29z" />
    <glyph glyph-name="J" unicode="J" horiz-adv-x="1041" 
d="M560 1432h116q167 0 167 -102q15 -118 15 -181q0 -647 -407 -1062q-138 -87 -197 -87h-65q-139 0 -189 305v51q29 327 145 327q37 -12 37 -36q0 -62 -8 -284q40 -159 109 -159q117 0 284 334q102 271 102 531v152q0 22 -117 22h-196q-209 0 -247 73q0 116 451 116z" />
    <glyph glyph-name="K" unicode="K" horiz-adv-x="1083" 
d="M219 1425q43 0 51 -212l-36 -387q470 482 548 482h7q27 -14 37 -44q0 -89 -490 -562q295 -244 577 -519v-37q0 -82 -109 -131h-22q-23 0 -570 504v7h-7q-28 -497 -88 -497q-8 -29 -73 -29q-26 0 -44 58q102 1287 146 1287q20 80 73 80z" />
    <glyph glyph-name="L" unicode="L" horiz-adv-x="1062" 
d="M296 1425q40 0 53 -121q0 -68 -167 -1115q197 38 644 99q0 -10 53 -68q0 -38 -68 -91q0 -38 -265 -61q-379 -68 -470 -68q-76 37 -76 61q167 1176 197 1258q51 106 99 106z" />
    <glyph glyph-name="M" unicode="M" horiz-adv-x="1467" 
d="M1240 1425q46 0 54 -62q0 -104 -239 -1217q-43 -84 -100 -84h-31q-38 19 -38 61q0 65 169 894v7h-7q-315 -399 -416 -423q-108 34 -147 131l-161 331h-8q-147 -858 -193 -994q-7 0 -69 -69q-23 4 -54 85q154 1005 200 1186q66 123 116 123l85 -46q261 -530 261 -547h16
q408 519 524 616z" />
    <glyph glyph-name="N" unicode="N" horiz-adv-x="1383" 
d="M287 1436h39q68 -33 171 -310l318 -854h16v8l178 1056q22 0 63 85l46 15q24 -1 47 -54q11 0 23 -23q-132 -815 -280 -1289q-11 0 -54 -62l-54 8h-47q-133 174 -442 1032h-8q-168 -1048 -256 -1048h-24l-23 31q0 311 194 1320q41 49 93 85z" />
    <glyph glyph-name="O" unicode="O" horiz-adv-x="1286" 
d="M672 1425q324 0 436 -495q7 -100 7 -125q0 -386 -406 -709q-157 -96 -273 -96h-15q-212 0 -362 185q-59 149 -59 265v67q0 333 310 716q206 192 362 192zM162 561v-52q0 -246 207 -302q74 -22 111 -22q179 0 376 288q74 137 74 228v74q0 282 -243 428q-75 15 -89 15
q-205 -60 -229 -140q-207 -262 -207 -517z" />
    <glyph glyph-name="P" unicode="P" horiz-adv-x="1120" 
d="M518 1418h63q359 0 447 -234v-35q0 -195 -333 -454q-138 -112 -426 -227q-85 0 -85 -135q-53 -333 -141 -333h-8q-26 0 -35 85q156 802 284 1220q53 113 234 113zM390 1262l-142 -624q296 102 539 333q78 103 78 135v7q-79 133 -475 149z" />
    <glyph glyph-name="Q" unicode="Q" horiz-adv-x="1216" 
d="M699 1425q140 0 279 -231q28 -80 28 -146q0 -496 -300 -825q188 -285 188 -328v-7q0 -21 -28 -21q-207 92 -293 245q-169 -105 -301 -105q-178 0 -244 202q-28 73 -28 182q0 407 363 859q144 147 224 147q0 19 112 28zM147 433q0 -184 118 -252q39 -7 56 -7q82 0 175 63
q-37 54 -168 196v28q0 9 35 35h7q7 0 7 -7q14 7 21 7q136 0 231 -147q209 224 209 657q0 147 -209 237q-34 0 -189 -132q-70 0 -133 -133q-160 -288 -160 -545z" />
    <glyph glyph-name="R" unicode="R" horiz-adv-x="1283" 
d="M418 1425h7q666 -37 666 -184q7 -28 7 -50q0 -229 -531 -517q0 -11 -107 -64v-7q454 -437 454 -517q0 -78 -71 -78h-21q-66 23 -489 475q0 16 -21 42q-114 -49 -114 -92q-56 -510 -106 -510l-21 -14h-43q-28 10 -28 57q0 258 205 1360q46 82 78 85l29 -7q34 21 106 21z
M234 667q405 195 694 439l7 14v29q-272 92 -567 92q-49 0 -49 -29z" />
    <glyph glyph-name="S" unicode="S" horiz-adv-x="1146" 
d="M535 1432q248 0 417 -160q21 -33 21 -104q-28 -35 -48 -35q-40 0 -188 97q-144 49 -264 49q-139 0 -139 -76l-7 -35q0 -95 396 -452q188 -183 188 -396v-7q-41 -313 -306 -313h-63q-271 0 -542 341v34q23 91 90 91h14q284 -306 529 -306q139 0 139 97v21q0 188 -216 362
q-361 333 -361 472v14q0 189 180 285q90 21 160 21z" />
    <glyph glyph-name="T" unicode="T" horiz-adv-x="1467" 
d="M1214 1439q105 0 105 -60q-25 -142 -277 -142q-269 -33 -300 -45q-90 -861 -120 -1095q-14 -1 -45 -75q-37 -22 -52 -22q-23 0 -45 67q-8 0 -8 8q90 899 120 1109q-412 -45 -487 -45q-105 0 -105 60v23q0 142 390 142q632 75 824 75z" />
    <glyph glyph-name="U" unicode="U" horiz-adv-x="1118" 
d="M865 1439h15q61 -8 61 -61q-107 -905 -214 -1102q-163 -276 -367 -276h-23q-220 0 -306 245q-23 107 -31 245q37 834 77 834q36 69 68 69h8q7 0 54 -69q-46 -638 -46 -796q0 -344 237 -344q234 0 291 604q72 559 99 605q47 46 77 46z" />
    <glyph glyph-name="V" unicode="V" horiz-adv-x="964" 
d="M59 1425q110 -74 110 -304q8 -3 101 -733q31 32 337 986q55 43 84 43h26q42 -22 42 -68q-272 -923 -481 -1324q-31 -25 -59 -25h-25q-47 0 -84 379q-110 726 -110 886q0 99 59 160z" />
    <glyph glyph-name="W" unicode="W" horiz-adv-x="1307" 
d="M1075 1411q46 0 46 -53v-23q-244 -951 -366 -1282l-53 -53h-23l-31 46q-35 0 -175 518h-8q-139 -353 -290 -533q-34 -31 -53 -31l-53 61q-69 803 -69 1068q39 137 69 137h7q77 -47 77 -198q45 -663 45 -778v-8h8l213 465q25 0 62 39h15q11 0 23 -23l-8 -16q66 0 183 -465
h8q272 1083 297 1083q31 46 76 46z" />
    <glyph glyph-name="X" unicode="X" horiz-adv-x="1279" 
d="M209 1432h9q87 0 370 -474h9q132 207 313 398l67 48h47q14 0 29 -29v-38q0 -99 -342 -540q370 -537 370 -598l10 -57q-30 -85 -95 -85q-84 22 -361 389q-80 123 -94 123q-194 -288 -408 -550q-67 0 -86 -19h-19q-13 0 -28 28l9 48l-9 57q87 134 427 607v9
q-323 418 -323 541v38q0 104 105 104z" />
    <glyph glyph-name="Y" unicode="Y" horiz-adv-x="1167" 
d="M921 1432h9q15 0 37 -36v-10q0 -110 -356 -474q-144 -163 -264 -237q-140 -675 -219 -675h-37q-27 9 -27 55h9l-9 18v18q91 550 173 693q-74 0 -237 429v46q0 71 46 109h9q74 -27 100 -73q182 -343 182 -419q483 556 584 556z" />
    <glyph glyph-name="Z" unicode="Z" horiz-adv-x="1124" 
d="M658 1432h240q48 0 63 -36v-35q0 -55 -161 -285q-383 -588 -533 -836h9q510 62 649 62q36 -37 36 -71q0 -169 -356 -169q-336 -53 -552 -62q-36 12 -53 44v36q0 65 240 409q0 8 480 747h-444q-175 13 -187 54v35q31 107 569 107z" />
    <glyph glyph-name="bracketleft" unicode="[" horiz-adv-x="758" 
d="M112 1432h65q106 0 325 -9q47 -42 47 -56q0 -93 -224 -93h-167l28 -1079h37q260 -12 279 -65v-9q0 -121 -288 -121h-28q-158 0 -158 102q-28 660 -28 1125q0 205 112 205z" />
    <glyph glyph-name="backslash" unicode="\" horiz-adv-x="748" 
d="M91 1425q83 0 430 -1069q73 -180 73 -292q0 -30 -64 -64q-156 0 -512 1178l-18 156q27 91 91 91z" />
    <glyph glyph-name="bracketright" unicode="]" horiz-adv-x="692" 
d="M439 1418h51q52 0 59 -186q-17 -463 -17 -599v-414q0 -219 -203 -219h-110q-135 0 -135 68v8q0 118 220 118h59q-17 224 -17 380q0 87 34 675h-34q-115 0 -304 -8q-38 16 -42 34v25q0 110 312 110q0 8 127 8z" />
    <glyph glyph-name="asciicircum" unicode="^" 
d="M486 1433q94 0 272 -582v-56q-49 -103 -113 -103h-28q-89 70 -225 460h-10q-279 -341 -356 -376h-19q-23 0 -28 38q8 93 394 544q53 75 113 75z" />
    <glyph glyph-name="underscore" unicode="_" horiz-adv-x="1160" 
d="M321 144h309q370 0 370 -33l6 -12v-11q0 -88 -171 -88h-465q-370 0 -370 50v16q0 53 116 67q96 11 205 11z" />
    <glyph glyph-name="grave" unicode="`" horiz-adv-x="608" 
d="M92 1416q160 -77 273 -292q19 -51 19 -57q-18 -43 -38 -47h-9q-131 0 -330 283v19q21 94 85 94z" />
    <glyph glyph-name="a" unicode="a" horiz-adv-x="999" 
d="M712 1432q71 -9 71 -71q35 -936 35 -1228q-48 -106 -133 -106q-51 0 -62 98q0 136 -9 373q-327 -73 -365 -89q-117 -371 -196 -409h-17q-29 0 -36 89q151 739 587 1245q62 98 125 98zM587 1067q-144 -218 -249 -435h9q246 73 258 88v9q0 45 -9 329v9h-9z" />
    <glyph glyph-name="b" unicode="b" horiz-adv-x="1258" 
d="M760 1432q300 0 300 -129v-25q0 -132 -259 -323h65q218 -25 218 -186v-17q0 -226 -372 -493q-158 -97 -631 -259h-16q-65 0 -65 73q0 18 8 32q0 8 -8 8q49 1101 105 1101q16 59 73 89q0 62 485 129h97zM227 1181v-8q0 -124 -9 -340h9q410 189 639 381v8l-211 16
q-172 -16 -428 -57zM162 235h8q621 223 679 380q41 42 41 81q-21 40 -65 40h-81q-87 0 -469 -81q-81 0 -81 -48q-8 -193 -32 -372z" />
    <glyph glyph-name="c" unicode="c" horiz-adv-x="1209" 
d="M685 1432q236 0 267 -142q-24 -71 -45 -71h-53q-139 35 -178 35h-71q-229 0 -409 -445q-36 -140 -36 -231v-44q0 -246 231 -312q67 -17 125 -17h9q136 0 400 195q16 9 36 9q53 -20 53 -71q0 -142 -418 -320q-80 -18 -116 -18q-250 0 -409 205q-71 154 -71 293
q0 525 463 881q146 53 222 53z" />
    <glyph glyph-name="d" unicode="d" horiz-adv-x="1265" 
d="M211 1460h8q40 -51 51 -51q85 26 194 26h68q565 -55 565 -338q0 -328 -709 -945q-260 -152 -329 -152h-42q-17 0 -17 17v17q2 42 17 42l-9 42v9q104 1215 127 1215q0 50 42 76q0 25 34 42zM262 1241v-9q-85 -905 -110 -1046h8q167 66 439 354q329 342 329 506
q0 133 -489 203h-17q-92 -8 -160 -8z" />
    <glyph glyph-name="e" unicode="e" horiz-adv-x="1509" 
d="M1288 1453q14 -21 24 -102q-63 -102 -79 -102l-809 -47q0 -25 -78 -330q0 28 510 55q47 -20 47 -71q0 -165 -314 -165q-56 0 -306 -70q-87 -343 -87 -354q367 94 833 173q58 -16 79 -55v-16q-55 -55 -102 -149q-153 -55 -841 -212h-39l-32 23q0 -12 -31 -31h-24
q-18 0 -39 71q0 42 157 730q47 290 118 519q55 86 149 86q93 16 864 47z" />
    <glyph glyph-name="f" unicode="f" horiz-adv-x="1376" 
d="M1133 1469q41 -14 41 -55v-34q-31 -110 -110 -110q-603 -41 -638 -48l-55 -220h7q117 42 439 103q24 -61 48 -61v-21q0 -22 -48 -76q0 -54 -206 -75q-165 -41 -275 -41h-6q-158 -722 -179 -776q-41 -55 -82 -55h-28q-41 24 -41 62q165 869 309 1297q89 83 302 83
q467 27 522 27z" />
    <glyph glyph-name="g" unicode="g" horiz-adv-x="1397" 
d="M844 1431h40q284 0 284 -81q0 -32 -54 -60q-43 0 -257 20q-243 -36 -243 -68q-285 -137 -432 -553q-20 -66 -27 -129q0 -132 129 -303q113 -75 175 -75q398 0 560 581h-6q-40 0 -446 -95q-54 16 -54 75q0 121 257 148q265 68 371 68q54 -24 54 -75q-30 -286 -243 -594
q-209 -290 -554 -290q-190 0 -324 223q-74 143 -74 270q0 231 311 655q154 155 290 202q0 43 243 81z" />
    <glyph glyph-name="h" unicode="h" horiz-adv-x="1174" 
d="M284 1488h30q31 0 31 -107q-123 -719 -123 -744h8q131 61 491 145q115 556 138 576q14 0 77 69l15 7q21 0 54 -61q15 -2 15 -15q-184 -898 -276 -1212q-64 -108 -107 -108q-17 1 -46 85q15 138 84 460h-8q-344 -92 -460 -92q0 8 -8 8q-55 -371 -69 -415q-41 -84 -84 -84
q-11 0 -38 54q-8 0 -8 15q156 1419 284 1419z" />
    <glyph glyph-name="i" unicode="i" horiz-adv-x="643" 
d="M439 1446q48 0 48 -130q0 -129 -300 -1202q-54 -114 -122 -114q-65 0 -65 65v49q0 60 284 1137q47 104 90 146q0 35 65 49z" />
    <glyph glyph-name="j" unicode="j" horiz-adv-x="1041" 
d="M560 1432h116q167 0 167 -102q15 -118 15 -181q0 -647 -407 -1062q-138 -87 -197 -87h-65q-139 0 -189 305v51q29 327 145 327q37 -12 37 -36q0 -62 -8 -284q40 -159 109 -159q117 0 284 334q102 271 102 531v152q0 22 -117 22h-196q-209 0 -247 73q0 116 451 116z" />
    <glyph glyph-name="k" unicode="k" horiz-adv-x="1083" 
d="M219 1425q43 0 51 -212l-36 -387q470 482 548 482h7q27 -14 37 -44q0 -89 -490 -562q295 -244 577 -519v-37q0 -82 -109 -131h-22q-23 0 -570 504v7h-7q-28 -497 -88 -497q-8 -29 -73 -29q-26 0 -44 58q102 1287 146 1287q20 80 73 80z" />
    <glyph glyph-name="l" unicode="l" horiz-adv-x="1062" 
d="M296 1425q40 0 53 -121q0 -68 -167 -1115q197 38 644 99q0 -10 53 -68q0 -38 -68 -91q0 -38 -265 -61q-379 -68 -470 -68q-76 37 -76 61q167 1176 197 1258q51 106 99 106z" />
    <glyph glyph-name="m" unicode="m" horiz-adv-x="1467" 
d="M1240 1425q46 0 54 -62q0 -104 -239 -1217q-43 -84 -100 -84h-31q-38 19 -38 61q0 65 169 894v7h-7q-315 -399 -416 -423q-108 34 -147 131l-161 331h-8q-147 -858 -193 -994q-7 0 -69 -69q-23 4 -54 85q154 1005 200 1186q66 123 116 123l85 -46q261 -530 261 -547h16
q408 519 524 616z" />
    <glyph glyph-name="n" unicode="n" horiz-adv-x="1383" 
d="M287 1436h39q68 -33 171 -310l318 -854h16v8l178 1056q22 0 63 85l46 15q24 -1 47 -54q11 0 23 -23q-132 -815 -280 -1289q-11 0 -54 -62l-54 8h-47q-133 174 -442 1032h-8q-168 -1048 -256 -1048h-24l-23 31q0 311 194 1320q41 49 93 85z" />
    <glyph glyph-name="o" unicode="o" horiz-adv-x="1286" 
d="M672 1425q324 0 436 -495q7 -100 7 -125q0 -386 -406 -709q-157 -96 -273 -96h-15q-212 0 -362 185q-59 149 -59 265v67q0 333 310 716q206 192 362 192zM162 561v-52q0 -246 207 -302q74 -22 111 -22q179 0 376 288q74 137 74 228v74q0 282 -243 428q-75 15 -89 15
q-205 -60 -229 -140q-207 -262 -207 -517z" />
    <glyph glyph-name="p" unicode="p" horiz-adv-x="1120" 
d="M518 1418h63q359 0 447 -234v-35q0 -195 -333 -454q-138 -112 -426 -227q-85 0 -85 -135q-53 -333 -141 -333h-8q-26 0 -35 85q156 802 284 1220q53 113 234 113zM390 1262l-142 -624q296 102 539 333q78 103 78 135v7q-79 133 -475 149z" />
    <glyph glyph-name="q" unicode="q" horiz-adv-x="1216" 
d="M699 1425q140 0 279 -231q28 -80 28 -146q0 -496 -300 -825q188 -285 188 -328v-7q0 -21 -28 -21q-207 92 -293 245q-169 -105 -301 -105q-178 0 -244 202q-28 73 -28 182q0 407 363 859q144 147 224 147q0 19 112 28zM147 433q0 -184 118 -252q39 -7 56 -7q82 0 175 63
q-37 54 -168 196v28q0 9 35 35h7q7 0 7 -7q14 7 21 7q136 0 231 -147q209 224 209 657q0 147 -209 237q-34 0 -189 -132q-70 0 -133 -133q-160 -288 -160 -545z" />
    <glyph glyph-name="r" unicode="r" horiz-adv-x="1283" 
d="M418 1425h7q666 -37 666 -184q7 -28 7 -50q0 -229 -531 -517q0 -11 -107 -64v-7q454 -437 454 -517q0 -78 -71 -78h-21q-66 23 -489 475q0 16 -21 42q-114 -49 -114 -92q-56 -510 -106 -510l-21 -14h-43q-28 10 -28 57q0 258 205 1360q46 82 78 85l29 -7q34 21 106 21z
M234 667q405 195 694 439l7 14v29q-272 92 -567 92q-49 0 -49 -29z" />
    <glyph glyph-name="s" unicode="s" horiz-adv-x="1146" 
d="M535 1432q248 0 417 -160q21 -33 21 -104q-28 -35 -48 -35q-40 0 -188 97q-144 49 -264 49q-139 0 -139 -76l-7 -35q0 -95 396 -452q188 -183 188 -396v-7q-41 -313 -306 -313h-63q-271 0 -542 341v34q23 91 90 91h14q284 -306 529 -306q139 0 139 97v21q0 188 -216 362
q-361 333 -361 472v14q0 189 180 285q90 21 160 21z" />
    <glyph glyph-name="t" unicode="t" horiz-adv-x="1467" 
d="M1214 1439q105 0 105 -60q-25 -142 -277 -142q-269 -33 -300 -45q-90 -861 -120 -1095q-14 -1 -45 -75q-37 -22 -52 -22q-23 0 -45 67q-8 0 -8 8q90 899 120 1109q-412 -45 -487 -45q-105 0 -105 60v23q0 142 390 142q632 75 824 75z" />
    <glyph glyph-name="u" unicode="u" horiz-adv-x="1118" 
d="M865 1439h15q61 -8 61 -61q-107 -905 -214 -1102q-163 -276 -367 -276h-23q-220 0 -306 245q-23 107 -31 245q37 834 77 834q36 69 68 69h8q7 0 54 -69q-46 -638 -46 -796q0 -344 237 -344q234 0 291 604q72 559 99 605q47 46 77 46z" />
    <glyph glyph-name="v" unicode="v" horiz-adv-x="964" 
d="M59 1425q110 -74 110 -304q8 -3 101 -733q31 32 337 986q55 43 84 43h26q42 -22 42 -68q-272 -923 -481 -1324q-31 -25 -59 -25h-25q-47 0 -84 379q-110 726 -110 886q0 99 59 160z" />
    <glyph glyph-name="w" unicode="w" horiz-adv-x="1307" 
d="M1075 1411q46 0 46 -53v-23q-244 -951 -366 -1282l-53 -53h-23l-31 46q-35 0 -175 518h-8q-139 -353 -290 -533q-34 -31 -53 -31l-53 61q-69 803 -69 1068q39 137 69 137h7q77 -47 77 -198q45 -663 45 -778v-8h8l213 465q25 0 62 39h15q11 0 23 -23l-8 -16q66 0 183 -465
h8q272 1083 297 1083q31 46 76 46z" />
    <glyph glyph-name="x" unicode="x" horiz-adv-x="1279" 
d="M209 1432h9q87 0 370 -474h9q132 207 313 398l67 48h47q14 0 29 -29v-38q0 -99 -342 -540q370 -537 370 -598l10 -57q-30 -85 -95 -85q-84 22 -361 389q-80 123 -94 123q-194 -288 -408 -550q-67 0 -86 -19h-19q-13 0 -28 28l9 48l-9 57q87 134 427 607v9
q-323 418 -323 541v38q0 104 105 104z" />
    <glyph glyph-name="y" unicode="y" horiz-adv-x="1167" 
d="M921 1432h9q15 0 37 -36v-10q0 -110 -356 -474q-144 -163 -264 -237q-140 -675 -219 -675h-37q-27 9 -27 55h9l-9 18v18q91 550 173 693q-74 0 -237 429v46q0 71 46 109h9q74 -27 100 -73q182 -343 182 -419q483 556 584 556z" />
    <glyph glyph-name="z" unicode="z" horiz-adv-x="1124" 
d="M658 1432h240q48 0 63 -36v-35q0 -55 -161 -285q-383 -588 -533 -836h9q510 62 649 62q36 -37 36 -71q0 -169 -356 -169q-336 -53 -552 -62q-36 12 -53 44v36q0 65 240 409q0 8 480 747h-444q-175 13 -187 54v35q31 107 569 107z" />
    <glyph glyph-name="braceleft" unicode="{" horiz-adv-x="789" 
d="M166 1300q165 0 222 -142q130 -141 150 -206q0 -42 -47 -71q-139 0 -356 197q-24 63 -24 80q0 8 8 8l-8 39v16q0 44 55 79zM206 802q332 -13 332 -64v-16q0 -100 -403 -126h-64q-71 10 -71 71q0 135 206 135zM514 588l24 -32q-64 -161 -348 -308q-39 -24 -103 -24l-16 24
v31q38 138 372 293z" />
    <glyph glyph-name="bar" unicode="|" horiz-adv-x="398" 
d="M208 1432l23 -31v-123q0 -361 -100 -1139q-39 -139 -93 -139q-27 4 -38 169q90 1255 169 1255z" />
    <glyph glyph-name="braceright" unicode="}" 
d="M403 1298l23 -31v-7q-69 -194 -375 -337h-7q-12 0 -31 31v15q32 126 321 314zM617 969q77 -11 77 -38v-8q0 -107 -352 -199q-104 -15 -222 -23q-99 18 -99 46v8q0 93 306 153q211 61 290 61zM158 625q392 -23 414 -130q22 -8 22 -46v-16q0 -82 -145 -99h-8
q-213 63 -351 237l-8 31q39 23 76 23z" />
    <glyph glyph-name="asciitilde" unicode="~" 
d="M301 1349q71 0 286 -127q16 -8 24 -8q128 95 159 95q40 -15 40 -47q-63 -181 -191 -247q-40 -16 -56 -16q-75 0 -270 127q-27 16 -48 16q-13 0 -151 -79h-8l-32 16q-14 -8 -32 -8l-8 16v23q34 113 119 160q110 77 168 79z" />
    <glyph glyph-name="exclamdown" unicode="&#xa1;" horiz-adv-x="672" 
 />
    <glyph glyph-name="cent" unicode="&#xa2;" horiz-adv-x="1139" 
 />
    <glyph glyph-name="sterling" unicode="&#xa3;" 
 />
    <glyph glyph-name="currency" unicode="&#xa4;" 
 />
    <glyph glyph-name="yen" unicode="&#xa5;" horiz-adv-x="1262" 
 />
    <glyph glyph-name="brokenbar" unicode="&#xa6;" 
 />
    <glyph glyph-name="section" unicode="&#xa7;" 
 />
    <glyph glyph-name="dieresis" unicode="&#xa8;" horiz-adv-x="1024" 
 />
    <glyph glyph-name="copyright" unicode="&#xa9;" horiz-adv-x="1674" 
d="M952 1432q160 0 348 -223q124 -243 124 -431q0 -272 -215 -538q-244 -240 -572 -240q-463 0 -596 315q-33 90 -41 231q0 458 389 704q146 124 339 124q15 -8 34 -8q0 41 190 66zM157 637v-74q0 -323 414 -381h141q436 0 538 447l16 91q0 224 -165 422q-130 108 -331 108
l-33 8q-196 -23 -422 -232q-158 -131 -158 -389zM795 1010q82 -10 82 -33v-17q-17 -42 -273 -132q-66 -47 -66 -91q66 -124 157 -124q194 74 249 74l16 -25v-8q0 -122 -314 -199q-120 0 -224 166q-16 27 -16 49v25q0 224 314 307q31 8 75 8z" />
    <glyph glyph-name="ordfeminine" unicode="&#xaa;" horiz-adv-x="648" 
 />
    <glyph glyph-name="guillemotleft" unicode="&#xab;" horiz-adv-x="944" 
 />
    <glyph glyph-name="logicalnot" unicode="&#xac;" 
 />
    <glyph glyph-name="registered" unicode="&#xae;" horiz-adv-x="1674" 
 />
    <glyph glyph-name="macron" unicode="&#xaf;" horiz-adv-x="670" 
 />
    <glyph glyph-name="degree" unicode="&#xb0;" horiz-adv-x="674" 
 />
    <glyph glyph-name="plusminus" unicode="&#xb1;" 
 />
    <glyph glyph-name="uni00B2" unicode="&#xb2;" 
 />
    <glyph glyph-name="uni00B3" unicode="&#xb3;" 
 />
    <glyph glyph-name="acute" unicode="&#xb4;" horiz-adv-x="727" 
d="M542 1493l10 -21q-28 -96 -350 -380q-111 -72 -185 -72l-10 21v30q93 226 535 422z" />
    <glyph glyph-name="mu" unicode="&#xb5;" horiz-adv-x="1180" 
 />
    <glyph glyph-name="paragraph" unicode="&#xb6;" horiz-adv-x="1024" 
 />
    <glyph glyph-name="periodcentered" unicode="&#xb7;" horiz-adv-x="508" 
 />
    <glyph glyph-name="periodcentered" unicode="&#x2219;" horiz-adv-x="508" 
 />
    <glyph glyph-name="cedilla" unicode="&#xb8;" horiz-adv-x="1024" 
 />
    <glyph glyph-name="uni00B9" unicode="&#xb9;" 
 />
    <glyph glyph-name="ordmasculine" unicode="&#xba;" horiz-adv-x="718" 
 />
    <glyph glyph-name="guillemotright" unicode="&#xbb;" horiz-adv-x="944" 
 />
    <glyph glyph-name="onequarter" unicode="&#xbc;" horiz-adv-x="1708" 
 />
    <glyph glyph-name="onehalf" unicode="&#xbd;" horiz-adv-x="1964" 
 />
    <glyph glyph-name="threequarters" unicode="&#xbe;" horiz-adv-x="1708" 
 />
    <glyph glyph-name="questiondown" unicode="&#xbf;" horiz-adv-x="748" 
 />
    <glyph glyph-name="Agrave" unicode="&#xc0;" horiz-adv-x="1540" 
 />
    <glyph glyph-name="Aacute" unicode="&#xc1;" horiz-adv-x="1540" 
 />
    <glyph glyph-name="Acircumflex" unicode="&#xc2;" horiz-adv-x="1540" 
 />
    <glyph glyph-name="Atilde" unicode="&#xc3;" horiz-adv-x="1540" 
 />
    <glyph glyph-name="Adieresis" unicode="&#xc4;" horiz-adv-x="1540" 
 />
    <glyph glyph-name="Aring" unicode="&#xc5;" horiz-adv-x="1540" 
 />
    <glyph glyph-name="AE" unicode="&#xc6;" horiz-adv-x="2118" 
 />
    <glyph glyph-name="Ccedilla" unicode="&#xc7;" horiz-adv-x="1399" 
 />
    <glyph glyph-name="Egrave" unicode="&#xc8;" horiz-adv-x="1151" 
 />
    <glyph glyph-name="Eacute" unicode="&#xc9;" horiz-adv-x="1151" 
 />
    <glyph glyph-name="Ecircumflex" unicode="&#xca;" horiz-adv-x="1151" 
 />
    <glyph glyph-name="Edieresis" unicode="&#xcb;" horiz-adv-x="1151" 
 />
    <glyph glyph-name="Igrave" unicode="&#xcc;" horiz-adv-x="657" 
 />
    <glyph glyph-name="Iacute" unicode="&#xcd;" horiz-adv-x="657" 
 />
    <glyph glyph-name="Icircumflex" unicode="&#xce;" horiz-adv-x="657" 
 />
    <glyph glyph-name="Idieresis" unicode="&#xcf;" horiz-adv-x="657" 
 />
    <glyph glyph-name="Eth" unicode="&#xd0;" horiz-adv-x="1518" 
 />
    <glyph glyph-name="Ntilde" unicode="&#xd1;" horiz-adv-x="1554" 
 />
    <glyph glyph-name="Ograve" unicode="&#xd2;" horiz-adv-x="1614" 
 />
    <glyph glyph-name="Oacute" unicode="&#xd3;" horiz-adv-x="1614" 
 />
    <glyph glyph-name="Ocircumflex" unicode="&#xd4;" horiz-adv-x="1614" 
 />
    <glyph glyph-name="Otilde" unicode="&#xd5;" horiz-adv-x="1614" 
 />
    <glyph glyph-name="Odieresis" unicode="&#xd6;" horiz-adv-x="1614" 
 />
    <glyph glyph-name="multiply" unicode="&#xd7;" 
 />
    <glyph glyph-name="Oslash" unicode="&#xd8;" horiz-adv-x="1614" 
 />
    <glyph glyph-name="Ugrave" unicode="&#xd9;" horiz-adv-x="1501" 
 />
    <glyph glyph-name="Uacute" unicode="&#xda;" horiz-adv-x="1501" 
 />
    <glyph glyph-name="Ucircumflex" unicode="&#xdb;" horiz-adv-x="1501" 
 />
    <glyph glyph-name="Udieresis" unicode="&#xdc;" horiz-adv-x="1501" 
 />
    <glyph glyph-name="Yacute" unicode="&#xdd;" horiz-adv-x="1233" 
 />
    <glyph glyph-name="Thorn" unicode="&#xde;" horiz-adv-x="1120" 
 />
    <glyph glyph-name="germandbls" unicode="&#xdf;" horiz-adv-x="1251" 
 />
    <glyph glyph-name="agrave" unicode="&#xe0;" horiz-adv-x="922" 
 />
    <glyph glyph-name="aacute" unicode="&#xe1;" horiz-adv-x="922" 
 />
    <glyph glyph-name="acircumflex" unicode="&#xe2;" horiz-adv-x="922" 
 />
    <glyph glyph-name="atilde" unicode="&#xe3;" horiz-adv-x="922" 
 />
    <glyph glyph-name="adieresis" unicode="&#xe4;" horiz-adv-x="922" 
 />
    <glyph glyph-name="aring" unicode="&#xe5;" horiz-adv-x="922" 
 />
    <glyph glyph-name="ae" unicode="&#xe6;" horiz-adv-x="1454" 
 />
    <glyph glyph-name="ccedilla" unicode="&#xe7;" horiz-adv-x="905" 
 />
    <glyph glyph-name="egrave" unicode="&#xe8;" horiz-adv-x="909" 
 />
    <glyph glyph-name="eacute" unicode="&#xe9;" horiz-adv-x="909" 
 />
    <glyph glyph-name="ecircumflex" unicode="&#xea;" horiz-adv-x="909" 
 />
    <glyph glyph-name="edieresis" unicode="&#xeb;" horiz-adv-x="909" 
 />
    <glyph glyph-name="igrave" unicode="&#xec;" horiz-adv-x="514" 
 />
    <glyph glyph-name="iacute" unicode="&#xed;" horiz-adv-x="514" 
 />
    <glyph glyph-name="icircumflex" unicode="&#xee;" horiz-adv-x="514" 
 />
    <glyph glyph-name="idieresis" unicode="&#xef;" horiz-adv-x="514" 
 />
    <glyph glyph-name="eth" unicode="&#xf0;" horiz-adv-x="1139" 
 />
    <glyph glyph-name="ntilde" unicode="&#xf1;" horiz-adv-x="1108" 
 />
    <glyph glyph-name="ograve" unicode="&#xf2;" horiz-adv-x="1010" 
 />
    <glyph glyph-name="oacute" unicode="&#xf3;" horiz-adv-x="1010" 
 />
    <glyph glyph-name="ocircumflex" unicode="&#xf4;" horiz-adv-x="1010" 
 />
    <glyph glyph-name="otilde" unicode="&#xf5;" horiz-adv-x="1010" 
 />
    <glyph glyph-name="odieresis" unicode="&#xf6;" horiz-adv-x="1010" 
 />
    <glyph glyph-name="divide" unicode="&#xf7;" 
 />
    <glyph glyph-name="oslash" unicode="&#xf8;" horiz-adv-x="1010" 
 />
    <glyph glyph-name="ugrave" unicode="&#xf9;" horiz-adv-x="1059" 
 />
    <glyph glyph-name="uacute" unicode="&#xfa;" horiz-adv-x="1059" 
 />
    <glyph glyph-name="ucircumflex" unicode="&#xfb;" horiz-adv-x="1059" 
 />
    <glyph glyph-name="udieresis" unicode="&#xfc;" horiz-adv-x="1059" 
 />
    <glyph glyph-name="yacute" unicode="&#xfd;" horiz-adv-x="868" 
 />
    <glyph glyph-name="thorn" unicode="&#xfe;" horiz-adv-x="1010" 
 />
    <glyph glyph-name="ydieresis" unicode="&#xff;" horiz-adv-x="868" 
 />
    <glyph glyph-name="dotlessi" unicode="&#x131;" horiz-adv-x="514" 
 />
    <glyph glyph-name="circumflex" unicode="&#x2c6;" horiz-adv-x="1024" 
 />
    <glyph glyph-name="caron" unicode="&#x2c7;" horiz-adv-x="1024" 
 />
    <glyph glyph-name="uni02C9" unicode="&#x2c9;" horiz-adv-x="1024" 
 />
    <glyph glyph-name="breve" unicode="&#x2d8;" horiz-adv-x="1024" 
 />
    <glyph glyph-name="dotaccent" unicode="&#x2d9;" horiz-adv-x="1024" 
 />
    <glyph glyph-name="ring" unicode="&#x2da;" horiz-adv-x="1024" 
 />
    <glyph glyph-name="ogonek" unicode="&#x2db;" horiz-adv-x="1024" 
 />
    <glyph glyph-name="tilde" unicode="&#x2dc;" horiz-adv-x="1024" 
 />
    <glyph glyph-name="hungarumlaut" unicode="&#x2dd;" horiz-adv-x="1024" 
 />
    <glyph glyph-name="endash" unicode="&#x2013;" horiz-adv-x="1108" 
 />
    <glyph glyph-name="emdash" unicode="&#x2014;" horiz-adv-x="2048" 
 />
    <glyph glyph-name="quoteleft" unicode="&#x2018;" horiz-adv-x="398" 
d="M150 1432q38 -15 38 -45q-38 -88 -38 -113q30 -108 60 -264q0 -28 -45 -60h-30q-128 133 -128 271q0 154 136 211h7z" />
    <glyph glyph-name="quoteright" unicode="&#x2019;" horiz-adv-x="346" 
d="M61 1439h26q60 -35 60 -123v-61q0 -153 -93 -228h-7q-11 0 -33 61q7 199 7 271l6 12l-6 13q0 32 40 55z" />
    <glyph glyph-name="quotesinglbase" unicode="&#x201a;" horiz-adv-x="557" 
 />
    <glyph glyph-name="quotedblleft" unicode="&#x201c;" horiz-adv-x="601" 
d="M289 1432q30 -8 115 -196q46 -44 46 -69v-6q0 -23 -17 -46l6 -11v-6q-58 -52 -87 -52q-52 0 -120 161q-18 38 -18 81v69q19 75 75 75zM82 1403q18 -7 98 -207q52 -56 52 -86v-23q0 -65 -93 -81q-132 64 -132 242q0 155 75 155z" />
    <glyph glyph-name="quotedblright" unicode="&#x201d;" horiz-adv-x="692" 
d="M488 1432h6l66 -59q13 -21 13 -33q0 -224 -250 -348h-6q-40 0 -40 46q0 17 99 210q0 36 46 112q13 72 66 72zM192 1426h26q17 -31 53 -59v-33q-19 -121 -151 -276q-24 -20 -46 -20h-20q-33 17 -33 53q64 276 118 276q44 59 53 59z" />
    <glyph glyph-name="quotedblbase" unicode="&#x201e;" horiz-adv-x="910" 
 />
    <glyph glyph-name="dagger" unicode="&#x2020;" 
 />
    <glyph glyph-name="daggerdbl" unicode="&#x2021;" 
 />
    <glyph glyph-name="bullet" unicode="&#x2022;" horiz-adv-x="1024" 
 />
    <glyph glyph-name="ellipsis" unicode="&#x2026;" horiz-adv-x="2048" 
 />
    <glyph glyph-name="guilsinglleft" unicode="&#x2039;" horiz-adv-x="631" 
 />
    <glyph glyph-name="guilsinglright" unicode="&#x203a;" horiz-adv-x="631" 
 />
    <glyph glyph-name="fraction" unicode="&#x2044;" horiz-adv-x="342" 
 />
    <glyph glyph-name="fraction" unicode="&#x2215;" horiz-adv-x="342" 
 />
    <glyph glyph-name="franc" unicode="&#x20a3;" 
 />
    <glyph glyph-name="lira" unicode="&#x20a4;" 
 />
    <glyph glyph-name="peseta" unicode="&#x20a7;" horiz-adv-x="2028" 
 />
    <glyph glyph-name="Euro" unicode="&#x20ac;" 
 />
    <glyph glyph-name="afii61352" unicode="&#x2116;" horiz-adv-x="2271" 
 />
    <glyph glyph-name="trademark" unicode="&#x2122;" horiz-adv-x="803" 
d="M582 1423h16q17 -4 17 -46q0 -343 -37 -343q-7 -4 -17 -4h-4q-16 4 -16 45q0 42 4 216v4h-4q-41 -83 -75 -83h-12q-55 35 -79 54v-33q0 -136 -29 -162q-25 27 -25 124v133h-4q-28 -29 -58 -29h-62q0 -5 4 -13q-4 -211 -41 -211h-4q-12 0 -25 67q6 125 12 157h-20
q-27 0 -54 -4q-62 0 -62 37q29 33 70 33q49 -4 71 -4h132q19 0 37 -25q0 34 29 50h21q22 -17 112 -116q75 131 103 153z" />
    <glyph glyph-name="partialdiff" unicode="&#x2202;" 
 />
    <glyph glyph-name="Delta" unicode="&#x2206;" horiz-adv-x="1081" 
 />
    <glyph glyph-name="product" unicode="&#x220f;" horiz-adv-x="1515" 
 />
    <glyph glyph-name="summation" unicode="&#x2211;" horiz-adv-x="1206" 
 />
    <glyph glyph-name="minus" unicode="&#x2212;" 
 />
    <glyph glyph-name="radical" unicode="&#x221a;" 
 />
    <glyph glyph-name="infinity" unicode="&#x221e;" 
 />
    <glyph glyph-name="integral" unicode="&#x222b;" horiz-adv-x="665" 
 />
    <glyph glyph-name="approxequal" unicode="&#x2248;" 
 />
    <glyph glyph-name="lessequal" unicode="&#x2264;" 
 />
    <glyph glyph-name="greaterequal" unicode="&#x2265;" 
 />
    <glyph glyph-name="uniF001" unicode="&#xf001;" horiz-adv-x="1334" 
d="M1140 1462q41 -14 41 -55v-34q-31 -110 -110 -110q-603 -41 -638 -48l-55 -220h7q117 42 439 103q24 -61 48 -61v-21q0 -22 -48 -76q0 -54 -206 -75q-165 -41 -275 -41h-6q-158 -722 -179 -776q-41 -55 -82 -55h-28q-41 24 -41 62q165 869 309 1297q89 83 302 83
q467 27 522 27zM1125 1208q42 0 42 -107t-263 -993q-46 -94 -106 -94q-57 0 -57 54v40q0 49 249 939q41 86 78 121q0 28 57 40z" />
    <glyph glyph-name="uniF001" unicode="&#xfb01;" horiz-adv-x="1334" 
d="M1140 1462q41 -14 41 -55v-34q-31 -110 -110 -110q-603 -41 -638 -48l-55 -220h7q117 42 439 103q24 -61 48 -61v-21q0 -22 -48 -76q0 -54 -206 -75q-165 -41 -275 -41h-6q-158 -722 -179 -776q-41 -55 -82 -55h-28q-41 24 -41 62q165 869 309 1297q89 83 302 83
q467 27 522 27zM1125 1208q42 0 42 -107t-263 -993q-46 -94 -106 -94q-57 0 -57 54v40q0 49 249 939q41 86 78 121q0 28 57 40z" />
    <glyph glyph-name="uniF002" unicode="&#xf002;" horiz-adv-x="1827" 
d="M1140 1462q41 -14 41 -55v-34q-31 -110 -110 -110q-603 -41 -638 -48l-55 -220h7q117 42 439 103q24 -61 48 -61v-21q0 -22 -48 -76q0 -54 -206 -75q-165 -41 -275 -41h-6q-158 -722 -179 -776q-41 -55 -82 -55h-28q-41 24 -41 62q165 869 309 1297q89 83 302 83
q467 27 522 27zM1086 1404q40 0 53 -121q0 -68 -167 -1115q197 38 644 99q0 -10 53 -68q0 -38 -68 -91q0 -38 -265 -61q-379 -68 -470 -68q-76 37 -76 61q167 1176 197 1258q51 106 99 106z" />
    <glyph glyph-name="uniF002" unicode="&#xfb02;" horiz-adv-x="1827" 
d="M1140 1462q41 -14 41 -55v-34q-31 -110 -110 -110q-603 -41 -638 -48l-55 -220h7q117 42 439 103q24 -61 48 -61v-21q0 -22 -48 -76q0 -54 -206 -75q-165 -41 -275 -41h-6q-158 -722 -179 -776q-41 -55 -82 -55h-28q-41 24 -41 62q165 869 309 1297q89 83 302 83
q467 27 522 27zM1086 1404q40 0 53 -121q0 -68 -167 -1115q197 38 644 99q0 -10 53 -68q0 -38 -68 -91q0 -38 -265 -61q-379 -68 -470 -68q-76 37 -76 61q167 1176 197 1258q51 106 99 106z" />
    </font>
</defs>
</svg>
