<svg xmlns="http://www.w3.org/2000/svg" viewBox="0 0 365 346.44"><defs><style>.cls-1{fill:#2950d0;}.cls-2{fill:#fff;}</style></defs><title>hover-bubble</title><g id="Layer_2" data-name="Layer 2"><g id="Layer_1-2" data-name="Layer 1"><g id="Union_1" data-name="Union 1"><path class="cls-1" d="M358,0H7A7,7,0,0,0,0,7V339.44a7,7,0,0,0,7,7H358a7,7,0,0,0,7-7V7A7,7,0,0,0,358,0Zm4,339.44a4,4,0,0,1-4,4H7a4,4,0,0,1-4-4V7A4,4,0,0,1,7,3H358a4,4,0,0,1,4,4Z"/><path class="cls-2" d="M362,7V339.44a4,4,0,0,1-4,4H7a4,4,0,0,1-4-4V7A4,4,0,0,1,7,3H358A4,4,0,0,1,362,7Z"/></g></g></g></svg>