<?xml version="1.0" encoding="utf-8"?>
<!-- Generator: Adobe Illustrator 24.0.3, SVG Export Plug-In . SVG Version: 6.00 Build 0)  -->
<svg version="1.1" id="Layer_1" xmlns="http://www.w3.org/2000/svg" xmlns:xlink="http://www.w3.org/1999/xlink" x="0px" y="0px"
	 viewBox="0 0 24 24" style="enable-background:new 0 0 24 24;" xml:space="preserve">
<style type="text/css">
	.st0{fill:#FFFFFF;}
</style>
<path class="st0" d="M18,8.1h-4V7.2h4V8.1z M18.8,14.2c-0.8,2.3-5.9,3-5.9-1.6s5.5-4.4,6.1-0.9c0,0.3,0.1,0.7,0.1,1.2h-4.4
	c-0.1,1.7,1.8,1.9,2.4,1.2L18.8,14.2L18.8,14.2z M14.6,11.9h2.6C17.1,10.2,14.9,10.1,14.6,11.9z M8.8,16H5V7.2h4.1
	c3.2,0,3.3,3.2,1.6,4C12.7,12,12.7,16,8.8,16z M6.9,10.8h2c1.5,0,1.7-1.9-0.2-1.9H6.9V10.8z M8.7,12.3H6.9v1.9h1.8
	C10.5,14.2,10.4,12.3,8.7,12.3z M12,2c5.5,0,10,4.5,10,10s-4.5,10-10,10S2,17.5,2,12S6.5,2,12,2z M12,0C5.4,0,0,5.4,0,12
	s5.4,12,12,12s12-5.4,12-12S18.6,0,12,0z"/>
</svg>
