<?xml version="1.0" encoding="utf-8"?>
<!-- Generator: Adobe Illustrator 24.0.3, SVG Export Plug-In . SVG Version: 6.00 Build 0)  -->
<svg version="1.1" id="Layer_1" xmlns="http://www.w3.org/2000/svg" xmlns:xlink="http://www.w3.org/1999/xlink" x="0px" y="0px"
	 viewBox="0 0 24 24" style="enable-background:new 0 0 24 24;" xml:space="preserve">
<style type="text/css">
	.st0{fill:#FFFFFF;}
</style>
<path class="st0" d="M12,0L12,0L12,0C5.4,0,0,5.4,0,12l0,0l0,0c0,6.6,5.4,12,12,12s12-5.4,12-12S18.6,0,12,0z M17.9,19.9l-1-1.5
	c0.9-0.7,1.6-1.5,2.1-2.4l1.6,0.8C20,18.1,19,19.1,17.9,19.9z M6.9,20.6C5.8,19.9,4.8,19,4,18l1.5-1c0.6,0.8,1.4,1.5,2.2,2L6.9,20.6
	z M8.2,10c-0.6,1.2-0.7,2.7-0.1,3.9l-2.5,1.5c-1.2-2.2-1.1-4.9,0.2-7.1l0,0L8.2,10z M6.3,7.5C7.6,5.9,9.5,5,11.5,4.8v2.9
	c-1.1,0.1-2.1,0.6-2.8,1.5L6.3,7.5z M6.2,16.2l2.5-1.5c0.7,0.9,1.8,1.5,2.9,1.6v2.9C9.4,19,7.4,17.9,6.2,16.2z M8.6,12
	c0-1.9,1.5-3.4,3.4-3.4s3.4,1.5,3.4,3.4s-1.5,3.4-3.4,3.4S8.6,13.9,8.6,12z M21.8,10.5L20,10.6c-0.2-1-0.5-1.9-1-2.8l1.5-1
	C21.2,7.9,21.6,9.1,21.8,10.5z M18.3,15.4l-2.5-1.5c0.6-1.2,0.6-2.7-0.1-3.9l2.4-1.6C19.5,10.5,19.5,13.2,18.3,15.4z M17.8,16.2
	c-1.3,1.7-3.2,2.8-5.4,3v-2.9c1.1-0.1,2.2-0.7,2.9-1.6L17.8,16.2z M15.3,9.2c-0.7-0.8-1.7-1.3-2.8-1.5V4.8c2,0.1,3.9,1.1,5.2,2.7
	L15.3,9.2z M12.5,21.9v-1.8c1.3-0.1,2.6-0.5,3.7-1.1l1,1.5C15.8,21.3,14.2,21.8,12.5,21.9z M19.5,15.2c0.4-1,0.7-2.1,0.7-3.2
	c0-0.1,0-0.3,0-0.4l1.8-0.2c0,0.2,0,0.4,0,0.6c0,1.4-0.3,2.8-0.9,4L19.5,15.2z M20,6l-1.5,1c-0.6-0.8-1.4-1.5-2.2-2l0.9-1.6
	C18.2,4.1,19.2,5,20,6z M16.2,3l-0.9,1.6c-0.9-0.4-1.9-0.7-2.9-0.7V2C13.8,2.1,15.1,2.4,16.2,3z M11.5,2v1.8l0,0
	C10.2,3.9,9,4.3,7.8,5l-1-1.5C8.2,2.6,9.8,2.1,11.5,2z M7.1,5.5C6.2,6.2,5.5,7,4.9,7.9L3.3,7.1C4,5.9,4.9,4.8,6,4L7.1,5.5z M2,12
	c0-1.4,0.3-2.8,0.8-4l1.7,0.8c-0.4,1-0.7,2.1-0.7,3.2c0,0.1,0,0.3,0,0.4L2,12.6C2,12.4,2,12.2,2,12z M2.1,13.6L4,13.4
	c0.2,1,0.5,1.9,1,2.8l-1.5,1C2.8,16.1,2.3,14.9,2.1,13.6z M7.8,21l0.8-1.6c0.9,0.4,1.9,0.7,2.9,0.7l0,0v1.8
	C10.2,21.9,8.9,21.5,7.8,21z"/>
</svg>
