<?xml version="1.0" encoding="utf-8"?>
<!-- Generator: Adobe Illustrator 24.0.2, SVG Export Plug-In . SVG Version: 6.00 Build 0)  -->
<svg version="1.1" id="Layer_1" xmlns="http://www.w3.org/2000/svg" xmlns:xlink="http://www.w3.org/1999/xlink" x="0px" y="0px"
	 viewBox="0 0 200 138" style="enable-background:new 0 0 200 138;" xml:space="preserve">
<style type="text/css">
	.st0{fill:#1D3144;}
	.st1{fill:#DB0000;}
	.st2{fill:#FFBA08;}
</style>
<g>
	<g>
		<rect x="71" y="128.1" class="st0" width="57.9" height="9.8"/>
		<path class="st0" d="M195.1,0.1H23.8v9.8h166.4v21.2h9.8V5C200,2.3,197.8,0.1,195.1,0.1z"/>
		<path class="st0" d="M4.9,95.4h29.2v-9.8H9.8V0.1H0v90.3C0,93.2,2.2,95.4,4.9,95.4z"/>
		<rect x="24.3" y="41.6" class="st0" width="9.8" height="30.8"/>
		<rect x="45.2" y="41.6" class="st0" width="9.8" height="53.8"/>
		<path class="st0" d="M138.8,72.3h13.8v-9.8h-13.8V51.4h13.8v-9.8h-18.7c-2.7,0-4.9,2.2-4.9,4.9v44c0,2.7,2.2,4.9,4.9,4.9h39.6
			v-9.8h-34.7V72.3z"/>
		<path class="st0" d="M181.8,41.6c-10,0-18.2,8.1-18.2,18.2v12.6h9.8V59.7c0-4.6,3.7-8.3,8.3-8.3c4.6,0,8.3,3.7,8.3,8.3v59.6h9.8
			V59.7C200,49.7,191.9,41.6,181.8,41.6z"/>
		<rect y="109.5" class="st0" width="173.5" height="9.8"/>
		<path class="st0" d="M108,20.4V80c0,3.1-2.5,5.6-5.6,5.6s-5.6-2.5-5.6-5.6v-9.8v-7.7h-9.8v7.7c0,3.1-2.5,5.6-5.6,5.6
			S76,73.2,76,70.2V41.6h-9.8v28.6c0,8.5,6.9,15.4,15.4,15.4c2.2,0,4.3-0.5,6.2-1.3c1.9,6.4,7.8,11.1,14.8,11.1
			c8.5,0,15.4-6.9,15.4-15.4V20.4H108z"/>
	</g>
	<g>
		<circle class="st1" cx="29.2" cy="25.7" r="5.4"/>
		<circle class="st2" cx="50.1" cy="25.7" r="5.4"/>
	</g>
</g>
</svg>
