<?xml version="1.0" encoding="utf-8"?>
<!-- Generator: Adobe Illustrator 24.0.3, SVG Export Plug-In . SVG Version: 6.00 Build 0)  -->
<svg version="1.1" id="Layer_1" xmlns="http://www.w3.org/2000/svg" xmlns:xlink="http://www.w3.org/1999/xlink" x="0px" y="0px"
	 viewBox="0 0 1066 302" style="enable-background:new 0 0 1066 302;" xml:space="preserve">
<style type="text/css">
	.st0{enable-background:new    ;}
	.st1{fill:#FFFFFF;}
</style>
<g>
	<g id="Repeat_Grid_1_3_" transform="translate(616 582)">
		<g transform="translate(-616 -582)">
			<g class="st0">
				<path class="st1" d="M91.3,122.1v-12.4h13.1v12.4H91.3z M92,206.3v-69h11.7v69H92z"/>
				<path class="st1" d="M128.6,206.3v-69h11v3.3c3-2.3,6.9-3.3,11-3.3h0.8c8.3,0,14.4,2.1,17.9,6.3c3.6-4.4,8.6-6.3,14.2-6.3h0.8
					c14.5,0,22.1,6.2,22.1,22.1v46.9h-11.7v-49.7c0-5.5-3.5-9-9-9h-3.6c-6.3,0-8.6,5.1-8.8,8v50.6h-11.7v-49.7c0-5.5-3.3-9-8.8-9
					h-3.6c-6.6,0-9,4.4-9,7.2v51.5H128.6z"/>
				<path class="st1" d="M230.7,229.7v-92.5h11v3.3c3-2.3,6.9-3.3,11-3.3h2.2c15.9,0,23.5,6.2,23.5,22.1v24.8
					c0,15.7-7.6,22.1-23.5,22.1h-12.6v23.5H230.7z M242.4,155.2v40.7h13.9c6.9,0,10.4-3.5,10.4-9v-30.4c0-5.5-3.5-9-10.4-9h-5
					C244.5,147.6,242.4,152.4,242.4,155.2z"/>
				<path class="st1" d="M342.6,206.3c-2.5,0-5.5-1.7-7.6-4.1c-1.9,2.5-4.8,4.1-8.4,4.1h-9.5c-13.8,0-20-4.8-20-18.6v-2.8
					c0-13.8,6.3-21.4,20.1-21.4h14.4v-6.9c0-5.5-3.4-9-10.3-9h-18.6v-10.3h17.2c15.9,0,23.5,6.3,23.5,22.1v33.1
					c0,2.8,1.8,4.1,6.9,4.1v9.7H342.6z M331.6,189v-15.2h-14.5c-4.8,0-8.3,3.4-8.3,8.3v6.9c0,4.8,2.1,6.9,6.9,6.9h9.5
					C331.6,195.9,331.6,191.8,331.6,189z"/>
				<path class="st1" d="M391.6,206.3c-15.9,0-23.5-6.2-23.5-22.1v-24.8c0-15.7,7.6-22.1,23.5-22.1h15v10.3h-16.4
					c-6.9,0-10.3,3.5-10.3,9v30.4c0,5.5,3.4,9,10.3,9h16.4v10.3H391.6z"/>
				<path class="st1" d="M442.5,206.3c-9.7,0-14.5-6.9-14.5-16.6v-42.1h-9v-10.3h9v-16.6h11.7v16.6h16v10.3h-16v42.8
					c0,4.1,2.1,5.5,6.2,5.5h9.8v10.3H442.5z"/>
				<path class="st1" d="M535.5,206.3h-1.8c-15.9,0-23.5-6.3-23.5-22.1v-24.8c0-15.7,7.6-22.1,23.5-22.1h1.8
					c15.9,0,23.5,6.3,23.5,22.1v24.8C559,199.9,551.4,206.3,535.5,206.3z M547.3,156.6c0-5.5-3.5-9-10.4-9h-4.6
					c-6.9,0-10.3,3.5-10.3,9v30.4c0,5.5,3.4,9,10.3,9h4.6c6.9,0,10.4-3.5,10.4-9V156.6z"/>
				<path class="st1" d="M582.5,206.3v-69h11v3.3c3-2.3,6.9-3.3,11-3.3h3.6c14.5,0,22.1,6.2,22.1,22.1v46.9h-11.7v-49.7
					c0-5.5-3.5-9-9-9h-6.3c-6.9,0-9,4.8-9,7.6v51.1H582.5z"/>
				<path class="st1" d="M716.9,206.3h-1.8c-15.9,0-23.5-6.3-23.5-22.1v-24.8c0-15.7,7.6-22.1,23.5-22.1h1.8
					c15.9,0,23.5,6.3,23.5,22.1v24.8C740.3,199.9,732.7,206.3,716.9,206.3z M728.6,156.6c0-5.5-3.4-9-10.3-9h-4.6
					c-6.9,0-10.4,3.5-10.4,9v30.4c0,5.5,3.5,9,10.4,9h4.6c6.9,0,10.3-3.5,10.3-9V156.6z"/>
				<path class="st1" d="M779,206.3c-9.7,0-14.5-6.9-14.5-16.6v-42.1h-9v-10.3h9v-16.6h11.7v16.6h16v10.3h-16v42.8
					c0,4.1,2.1,5.5,6.2,5.5h9.8v10.3H779z"/>
				<path class="st1" d="M809.5,206.3v-96.6h11.7V140c2.9-1.9,6.5-2.8,10.3-2.8h3.6c14.5,0,22.1,6.2,22.1,22.1v46.9h-11.7v-49.7
					c0-5.5-3.5-9-9-9h-6.3c-6.6,0-9,4.4-9,7.2v51.5H809.5z"/>
				<path class="st1" d="M903.4,206.3c-15.9,0-23.5-6.2-23.5-22.1v-24.8c0-15.7,6.2-22.1,22.1-22.1h3.7c13.2,0,19.9,7.6,19.9,21.4
					v17.9h-33.9v10.3c0,5.5,3.4,9,10.3,9h19.2v10.3H903.4z M891.7,166.2h22.5v-10.3c0-4.8-3.5-8.3-8.3-8.3h-5.2c-6.9,0-9,3.5-9,9
					V166.2z"/>
				<path class="st1" d="M948.4,206.3v-69h11v3.7c3-2.5,6.6-3.7,11-3.7h10.1v11h-11.5c-6.9,0-9,6.2-9,9v49H948.4z"/>
				<path class="st1" d="M1012.2,206.3h-17.8v-10.3h19.2c4.8,0,7.6-2.1,7.6-6.2v-7.3c0-4.1-2.1-6.2-5.9-6.2h-2.3
					c-12.7,0-19.2-5.1-19.2-17.5v-4c0-12.8,7.6-17.4,20.7-17.4h15.7v10.3H1013c-4.4,0-7.6,2.1-7.6,6.2v5c0,4.4,3.2,6.2,6.6,6.2h1.9
					c12.3,0,18.9,6.1,18.9,17.8v6.2C1032.9,200.9,1025.3,206.3,1012.2,206.3z"/>
				<path class="st1" d="M1057.4,225.6h-10.8l5.5-19.3v-13.8h13.8v13.8L1057.4,225.6z"/>
			</g>
		</g>
	</g>
	<g class="st0">
		<path class="st1" d="M1.5,30c-1-1-1.5-2.3-1.5-3.8c0-2.3,1.1-4.1,3.3-5.3c2.2-1.2,4.8-1.9,7.9-2v-2.1c0-2.4-0.9-3.6-2.7-3.6
			c-1.2,0-2.1,0.4-2.9,1.1C5.9,14.6,6,15.1,6,15.7S5.8,17,5.4,17.5c-0.4,0.5-1.1,0.8-1.9,0.8c-0.8,0-1.4-0.3-1.9-0.8
			c-0.5-0.5-0.7-1.2-0.7-1.9c0-1,0.4-2,1.1-2.8c0.7-0.8,1.8-1.4,3.1-1.9c1.3-0.4,2.7-0.7,4.3-0.7c4.9,0,7.4,2.5,7.4,7.6l0,6.6
			c0,1.3-0.1,2.5-0.2,3.5c0.9-0.1,1.7-0.1,2.6-0.1v3h-7.6c-0.1-0.3-0.1-1-0.2-1.8h0c-1.6,1.7-3.6,2.5-5.9,2.5
			C3.8,31.5,2.4,31,1.5,30z M11.1,26.1v-4.5c-1.6,0.2-2.9,0.6-3.9,1.2c-1,0.6-1.5,1.5-1.5,2.6c0,0.7,0.2,1.3,0.7,1.6s1,0.5,1.6,0.5
			C9.2,27.6,10.2,27.1,11.1,26.1z"/>
		<path class="st1" d="M23.4,28.3c1,0,1.7-0.3,1.9-0.8c0.3-0.6,0.4-1.5,0.4-2.7V18c0-1.2,0.1-2.3,0.2-3.4l-2.8,0.1v-3
			c1.7,0,3-0.1,4.1-0.4c1-0.2,1.7-0.5,2.1-0.8h2c0,0.1,0.1,0.7,0.2,2h0.1c0.8-0.6,1.7-1.1,2.9-1.6c1.1-0.4,2.1-0.7,2.9-0.7
			c2.4,0,4.2,0.7,5.2,2.1s1.6,3.6,1.6,6.8v5.4c0,1.3-0.1,2.5-0.2,3.5c0.9-0.1,1.7-0.1,2.6-0.1v3H36v-2.6c1,0,1.7-0.3,2-0.8
			c0.3-0.6,0.4-1.5,0.4-2.7l0-5.7c0-1.8-0.2-3.1-0.7-3.9c-0.5-0.8-1.3-1.2-2.5-1.2c-0.6,0-1.3,0.1-2,0.4s-1.2,0.6-1.7,1.1v9
			c0,1.3-0.1,2.5-0.2,3.5c0.9-0.1,1.7-0.1,2.6-0.1v3H23.4V28.3z"/>
		<path class="st1" d="M63.4,28.3c1,0,1.7-0.3,1.9-0.8c0.3-0.6,0.4-1.5,0.4-2.7v-6.6c0-1.3,0.1-2.4,0.2-3.5l-2.8,0.1v-3
			c1.7,0,3-0.1,4.1-0.4c1-0.2,1.7-0.5,2.1-0.8h2.2v14c0,1.3-0.1,2.5-0.2,3.5c0.9-0.1,1.7-0.1,2.6-0.1v3H63.4V28.3z M66.8,6
			c-0.6-0.6-0.9-1.4-0.9-2.3c0-0.9,0.3-1.7,0.9-2.3c0.6-0.7,1.3-1,2.2-1c0.9,0,1.6,0.3,2.1,1C71.7,1.9,72,2.7,72,3.7
			c0,0.9-0.3,1.7-0.8,2.3c-0.5,0.6-1.3,0.9-2.1,0.9C68.1,6.9,67.3,6.6,66.8,6z"/>
		<path class="st1" d="M78.4,28.3c1,0,1.7-0.3,1.9-0.8c0.3-0.6,0.4-1.5,0.4-2.7V18c0-1.2,0.1-2.3,0.2-3.4l-2.8,0.1v-3
			c1.7,0,3-0.1,4.1-0.4c1-0.2,1.7-0.5,2.1-0.8h2c0,0.1,0.1,0.7,0.2,2h0.1c0.8-0.6,1.7-1.1,2.9-1.6c1.1-0.4,2.1-0.7,2.9-0.7
			c2.4,0,4.2,0.7,5.2,2.1s1.6,3.6,1.6,6.8v5.4c0,1.3-0.1,2.5-0.2,3.5c0.9-0.1,1.7-0.1,2.6-0.1v3H91v-2.6c1,0,1.7-0.3,2-0.8
			c0.3-0.6,0.4-1.5,0.4-2.7l0-5.7c0-1.8-0.2-3.1-0.7-3.9c-0.5-0.8-1.3-1.2-2.5-1.2c-0.6,0-1.3,0.1-2,0.4s-1.2,0.6-1.7,1.1v9
			c0,1.3-0.1,2.5-0.2,3.5c0.9-0.1,1.7-0.1,2.6-0.1v3H78.4V28.3z"/>
		<path class="st1" d="M109.4,30.3c-1.2-0.8-2.2-2-2.8-3.5c-0.7-1.5-1-3.3-1-5.3c0-2.1,0.4-4,1.2-5.7c0.8-1.7,2-3,3.5-4
			c1.5-1,3.2-1.4,5.2-1.4c1,0,2.2,0.2,3.6,0.7V8.3c0-1.3,0.1-2.5,0.2-3.5c-0.9,0.1-1.8,0.1-2.8,0.1v-3c1.7,0,3-0.1,4.1-0.4
			c1-0.2,1.7-0.5,2.1-0.8h2.2v23.8c0,1.3-0.1,2.5-0.2,3.5c0.9-0.1,1.7-0.1,2.6-0.1v3h-7.6l-0.2-1.8h0c-1.6,1.7-3.5,2.5-5.6,2.5
			C112,31.5,110.6,31.1,109.4,30.3z M117.6,27.3c0.6-0.3,1.1-0.8,1.4-1.4v-12c-0.3-0.2-0.7-0.4-1.2-0.5c-0.5-0.1-1.1-0.2-1.6-0.2
			c-1.7,0-2.9,0.8-3.7,2.2c-0.7,1.4-1.1,3.2-1.1,5.4c0,1.9,0.4,3.6,1.1,5c0.7,1.4,1.8,2.1,3.2,2.1C116.3,27.9,117,27.7,117.6,27.3z"
			/>
		<path class="st1" d="M131.7,28.3c1,0,1.7-0.3,1.9-0.8c0.3-0.6,0.4-1.5,0.4-2.7v-6.6c0-1.3,0.1-2.4,0.2-3.5l-2.8,0.1v-3
			c1.7,0,3-0.1,4.1-0.4c1-0.2,1.7-0.5,2.1-0.8h2.2v14c0,1.3-0.1,2.5-0.2,3.5c0.9-0.1,1.7-0.1,2.6-0.1v3h-10.5V28.3z M135.1,6
			c-0.6-0.6-0.9-1.4-0.9-2.3c0-0.9,0.3-1.7,0.9-2.3c0.6-0.7,1.3-1,2.2-1c0.9,0,1.6,0.3,2.1,1c0.6,0.6,0.9,1.4,0.9,2.4
			c0,0.9-0.3,1.7-0.8,2.3c-0.5,0.6-1.3,0.9-2.1,0.9C136.5,6.9,135.7,6.6,135.1,6z"/>
		<path class="st1" d="M147.6,17.1c-0.3-0.7-0.5-1.3-0.7-1.6c-0.1-0.4-0.2-0.7-0.3-1c-0.1-0.3-0.1-0.5-0.1-0.7l-1.5,0.1v-3h9.4v2.6
			c-0.9,0-1.4,0.5-1.4,1.3c0,0.5,0.1,1.1,0.4,1.8l3.4,8.3h0l2.9-8.2c0.4-1,0.8-1.9,1.3-2.8v0l-2.5,0.2v-3h7.6v2.6
			c-0.8,0.1-1.5,0.7-2.1,1.6c-0.6,0.9-1.1,2-1.6,3.2L157.4,31H154L147.6,17.1z"/>
		<path class="st1" d="M170,28.3c1,0,1.7-0.3,1.9-0.8c0.3-0.6,0.4-1.5,0.4-2.7v-6.6c0-1.3,0.1-2.4,0.2-3.5l-2.8,0.1v-3
			c1.7,0,3-0.1,4.1-0.4c1-0.2,1.7-0.5,2.1-0.8h2.2v14c0,1.3-0.1,2.5-0.2,3.5c0.9-0.1,1.7-0.1,2.6-0.1v3H170V28.3z M173.4,6
			c-0.6-0.6-0.9-1.4-0.9-2.3c0-0.9,0.3-1.7,0.9-2.3c0.6-0.7,1.3-1,2.2-1c0.9,0,1.6,0.3,2.1,1c0.6,0.6,0.9,1.4,0.9,2.4
			c0,0.9-0.3,1.7-0.8,2.3c-0.5,0.6-1.3,0.9-2.1,0.9C174.8,6.9,174,6.6,173.4,6z"/>
		<path class="st1" d="M188.6,30.3c-1.2-0.8-2.2-2-2.8-3.5c-0.7-1.5-1-3.3-1-5.3c0-2.1,0.4-4,1.2-5.7c0.8-1.7,2-3,3.5-4
			c1.5-1,3.2-1.4,5.2-1.4c1,0,2.2,0.2,3.6,0.7V8.3c0-1.3,0.1-2.5,0.2-3.5c-0.9,0.1-1.8,0.1-2.8,0.1v-3c1.7,0,3-0.1,4.1-0.4
			c1-0.2,1.7-0.5,2.1-0.8h2.2v23.8c0,1.3-0.1,2.5-0.2,3.5c0.9-0.1,1.7-0.1,2.6-0.1v3h-7.6l-0.2-1.8h0c-1.6,1.7-3.5,2.5-5.6,2.5
			C191.2,31.5,189.8,31.1,188.6,30.3z M196.8,27.3c0.6-0.3,1.1-0.8,1.4-1.4v-12c-0.3-0.2-0.7-0.4-1.2-0.5c-0.5-0.1-1.1-0.2-1.6-0.2
			c-1.7,0-2.9,0.8-3.7,2.2c-0.7,1.4-1.1,3.2-1.1,5.4c0,1.9,0.4,3.6,1.1,5c0.7,1.4,1.8,2.1,3.2,2.1C195.6,27.9,196.2,27.7,196.8,27.3
			z"/>
		<path class="st1" d="M214.1,29.4c-1-1.4-1.5-3.6-1.5-6.8v-4.6c0-1.1,0-2.3,0.1-3.5l-2.8,0.1v-3c1.7,0,3-0.1,4.1-0.4
			c1-0.2,1.7-0.5,2.1-0.8h2.2v12.2c0,1.8,0.2,3.1,0.7,3.9c0.5,0.8,1.2,1.2,2.2,1.2c0.7,0,1.4-0.2,2.1-0.6s1.3-0.8,1.8-1.4v-7.8
			c0-1.3,0.1-2.4,0.2-3.5l-2.8,0.1v-3c1.7,0,3-0.1,4.1-0.4c1-0.2,1.7-0.5,2.1-0.8h2.2v14c0,1.3-0.1,2.5-0.2,3.5
			c0.9-0.1,1.7-0.1,2.6-0.1v3h-7.6l-0.2-2.1h0c-1,0.9-1.9,1.5-2.9,2c-0.9,0.5-2,0.7-3.1,0.7C216.9,31.5,215.2,30.8,214.1,29.4z"/>
		<path class="st1" d="M238.7,30c-1-1-1.5-2.3-1.5-3.8c0-2.3,1.1-4.1,3.3-5.3c2.2-1.2,4.8-1.9,7.9-2v-2.1c0-2.4-0.9-3.6-2.7-3.6
			c-1.2,0-2.1,0.4-2.9,1.1c0.3,0.4,0.5,0.9,0.5,1.5s-0.2,1.2-0.7,1.7c-0.4,0.5-1.1,0.8-1.9,0.8c-0.8,0-1.4-0.3-1.9-0.8
			c-0.5-0.5-0.7-1.2-0.7-1.9c0-1,0.4-2,1.1-2.8c0.7-0.8,1.8-1.4,3.1-1.9c1.3-0.4,2.7-0.7,4.3-0.7c4.9,0,7.4,2.5,7.4,7.6l0,6.6
			c0,1.3-0.1,2.5-0.2,3.5c0.9-0.1,1.7-0.1,2.6-0.1v3h-7.6c-0.1-0.3-0.1-1-0.2-1.8h0c-1.6,1.7-3.6,2.5-5.9,2.5
			C241,31.5,239.7,31,238.7,30z M248.4,26.1v-4.5c-1.6,0.2-2.9,0.6-3.9,1.2c-1,0.6-1.5,1.5-1.5,2.6c0,0.7,0.2,1.3,0.7,1.6
			s1,0.5,1.6,0.5C246.4,27.6,247.4,27.1,248.4,26.1z"/>
		<path class="st1" d="M260,28.3c0.7,0,1.2-0.1,1.6-0.4c0.3-0.3,0.5-0.7,0.6-1.1c0.1-0.5,0.1-1.1,0.1-2V8.3c0-1.3,0.1-2.4,0.2-3.5
			l-2.8,0.1v-3c1.7,0,3-0.1,4.1-0.4c1-0.2,1.7-0.5,2.1-0.8h2.2v23.8c0,1.3-0.1,2.5-0.2,3.5c0.9-0.1,1.7-0.1,2.6-0.1v3H260V28.3z"/>
		<path class="st1" d="M288.9,17.1c-0.3-0.8-0.5-1.5-0.6-1.9c-0.1-0.4-0.3-0.9-0.4-1.4l-1.6,0.1v-3h9.6v2.6c-1,0-1.6,0.6-1.6,1.7
			c0,0.3,0.1,0.7,0.2,1.4l1.4,4.9c0.4,1.4,0.7,2.6,0.8,3.8h0c0.1-0.2,0.2-0.7,0.3-1.5c0.2-0.8,0.4-1.7,0.7-2.8l2.9-10h4.4l3.2,11
			c0.2,0.7,0.5,1.9,1,3.6h0c0.1-0.8,0.4-1.9,0.9-3.5l1.6-5.1c0.2-0.6,0.4-1.2,0.6-1.7c0.2-0.5,0.4-1,0.6-1.4v0l-2.3,0.2v-3h7.6v2.6
			c-1.4,0-2.6,1.4-3.6,4.3L310.2,31h-4.2l-2.8-8.5c-0.4-1.3-0.9-3-1.4-4.9h0c-0.3,1.6-0.9,3.9-1.8,6.8l-2.2,6.6h-4L288.9,17.1z"/>
		<path class="st1" d="M321.1,28.3c0.7,0,1.2-0.1,1.6-0.4c0.3-0.3,0.5-0.7,0.6-1.1c0.1-0.5,0.1-1.1,0.1-2V8.3c0-1.3,0.1-2.4,0.2-3.5
			l-2.8,0.1v-3c1.7,0,3-0.1,4.1-0.4c1-0.2,1.7-0.5,2.1-0.8h2.2v11.8c0.8-0.6,1.7-1.1,2.9-1.6c1.1-0.4,2.1-0.7,3-0.7
			c2.4,0,4.1,0.7,5.2,2.1s1.6,3.6,1.6,6.8v5.4c0,1.3-0.1,2.5-0.2,3.5c0.9-0.1,1.7-0.1,2.6-0.1v3h-10.5v-2.6c1,0,1.7-0.3,2-0.8
			c0.3-0.6,0.4-1.5,0.4-2.7l0-5.7c0-1.8-0.3-3.1-0.8-3.9s-1.3-1.2-2.5-1.2c-0.6,0-1.3,0.1-2,0.4c-0.7,0.3-1.2,0.6-1.7,1.1v9
			c0,1.3-0.1,2.5-0.2,3.5c0.9-0.1,1.7-0.1,2.6-0.1v3h-10.5V28.3z"/>
		<path class="st1" d="M353.2,30.3c-1.5-0.8-2.8-2-3.6-3.6c-0.9-1.5-1.3-3.3-1.3-5.4c0-2.2,0.5-4.1,1.4-5.8c0.9-1.7,2.1-3,3.7-3.9
			c1.5-0.9,3.2-1.4,5.1-1.4c1.9,0,3.6,0.4,5.2,1.2c1.5,0.8,2.7,2,3.6,3.6c0.9,1.6,1.3,3.4,1.3,5.5c0,2.2-0.4,4.1-1.3,5.8
			c-0.8,1.7-2,2.9-3.5,3.8c-1.5,0.9-3.2,1.4-5.2,1.4C356.4,31.5,354.7,31.1,353.2,30.3z M361.6,26.6c0.6-1.4,0.9-3.1,0.9-5.1
			c0-2.3-0.3-4.3-1-6c-0.7-1.7-1.7-2.5-3.2-2.5c-1.5,0-2.5,0.7-3.2,2.1c-0.7,1.4-1,3.1-1,5.1c0,2.3,0.4,4.3,1.1,6
			c0.7,1.7,1.8,2.5,3.3,2.5C359.9,28.7,361,28,361.6,26.6z"/>
	</g>
	<g class="st0">
		<path class="st1" d="M6.3,71.1c-1.1-0.3-1.9-0.7-2.6-1.1h0l0.1,1.2h-3l-0.2-6.9h2.6c0.1,1.2,0.8,2.3,1.9,3.1
			c1.2,0.8,2.6,1.3,4.3,1.3c0.7,0,1.4-0.2,1.9-0.5c0.5-0.3,0.8-0.8,0.8-1.5c0-0.5-0.2-0.9-0.5-1.2c-0.3-0.3-0.8-0.6-1.2-0.8
			C9.9,64.4,9,64,7.5,63.5c-1.7-0.7-3-1.2-3.8-1.6c-0.9-0.4-1.6-1.1-2.3-1.9c-0.7-0.8-1-1.9-1-3.3c0-1.1,0.3-2.1,0.8-3.1
			c0.5-1,1.4-1.8,2.5-2.4c1.1-0.6,2.5-0.9,4.2-0.9c0.8,0,1.6,0.1,2.5,0.4c0.9,0.2,1.7,0.6,2.3,1h0l0-1.2h3v7.1h-2.6
			c-0.2-1.4-0.9-2.5-1.8-3.3c-1-0.8-2.2-1.2-3.6-1.2c-0.7,0-1.4,0.2-1.9,0.5C5.3,53.9,5,54.4,5,55.1c0,0.7,0.3,1.3,0.9,1.7
			c0.6,0.4,1.6,0.8,3,1.2c0.2,0,0.5,0.1,1,0.3c2.3,0.8,4,1.7,5.2,2.8s1.8,2.5,1.8,4.2c0,1.3-0.3,2.5-1,3.4c-0.7,0.9-1.6,1.6-2.7,2.1
			c-1.1,0.5-2.3,0.7-3.6,0.7C8.5,71.5,7.4,71.4,6.3,71.1z"/>
		<path class="st1" d="M23.5,63.8l0.1-9.6h-2.7v-3.3c0.9,0,1.7-0.3,2.4-0.8c0.8-0.5,1.4-1.2,1.9-2c0.5-0.8,0.9-1.5,1.1-2.2h3l0,5
			h5.1v3.1l-5.1,0.1l0,9.8c0,2.6,0.8,3.9,2.4,3.9c1.3,0,2.5-0.8,3.6-2.4l1.9,1.8c-1.3,1.8-2.5,3-3.8,3.5c-1.3,0.5-2.5,0.8-3.7,0.8
			C25.6,71.5,23.5,68.9,23.5,63.8z"/>
		<path class="st1" d="M40.4,68.3c1,0,1.7-0.3,1.9-0.8c0.3-0.6,0.4-1.5,0.4-2.7V58c0-1.2,0.1-2.3,0.2-3.4l-2.8,0.1v-3
			c1.7,0,3-0.1,4.1-0.4c1-0.2,1.7-0.5,2.1-0.8h2c0.1,0.4,0.1,0.9,0.1,1.6c0,0.6,0,1.3,0,1.9h0.1c1.8-2.5,3.7-3.7,5.8-3.7
			c1,0,1.8,0.3,2.5,0.8c0.7,0.6,1,1.4,1,2.5c0,0.7-0.2,1.3-0.7,1.9c-0.5,0.6-1.1,0.9-2,0.9c-0.7,0-1.3-0.2-1.8-0.5s-0.8-0.9-0.9-1.8
			c-0.7,0-1.5,0.4-2.3,1.3c-0.8,0.9-1.3,1.7-1.6,2.6v6.5c0,1.3-0.1,2.5-0.2,3.5c0.9-0.1,1.7-0.1,2.6-0.1v3H40.4V68.3z"/>
		<path class="st1" d="M61.6,68.3c1,0,1.7-0.3,1.9-0.8c0.3-0.6,0.4-1.5,0.4-2.7v-6.6c0-1.3,0.1-2.4,0.2-3.5l-2.8,0.1v-3
			c1.7,0,3-0.1,4.1-0.4c1-0.2,1.7-0.5,2.1-0.8h2.2v14c0,1.3-0.1,2.5-0.2,3.5c0.9-0.1,1.7-0.1,2.6-0.1v3H61.6V68.3z M65,46
			c-0.6-0.6-0.9-1.4-0.9-2.3c0-0.9,0.3-1.7,0.9-2.3c0.6-0.7,1.3-1,2.2-1c0.9,0,1.6,0.3,2.1,1c0.6,0.6,0.9,1.4,0.9,2.4
			c0,0.9-0.3,1.7-0.8,2.3c-0.5,0.6-1.3,0.9-2.1,0.9C66.3,46.9,65.5,46.6,65,46z"/>
		<path class="st1" d="M77.5,57.1c-0.3-0.7-0.5-1.3-0.7-1.6c-0.1-0.4-0.2-0.7-0.3-1c-0.1-0.3-0.1-0.5-0.1-0.7L75,53.9v-3h9.4v2.6
			c-0.9,0-1.4,0.5-1.4,1.3c0,0.5,0.1,1.1,0.4,1.8l3.4,8.3h0l2.9-8.2c0.4-1,0.8-1.9,1.3-2.8v0l-2.5,0.2v-3h7.6v2.6
			c-0.8,0.1-1.5,0.7-2.1,1.6c-0.6,0.9-1.1,2-1.6,3.2L87.3,71h-3.5L77.5,57.1z"/>
		<path class="st1" d="M103.7,70.2c-1.5-0.9-2.7-2.1-3.5-3.7C99.4,64.9,99,63,99,60.9c0-1.9,0.4-3.6,1.3-5.3c0.8-1.6,2-3,3.5-3.9
			c1.5-1,3.3-1.5,5.2-1.5c2.6,0,4.7,0.8,6.5,2.3c1.7,1.5,2.6,4.1,2.5,7.6l-13.1,0.2c0,2.3,0.4,4.2,1.3,5.6c0.9,1.4,2.3,2,4.3,2
			c0.9,0,1.9-0.2,3-0.7c1.1-0.5,2-1.2,2.9-2.3l1.8,1.7c-2.3,3.3-5.4,4.9-9.3,4.9C106.9,71.5,105.2,71.1,103.7,70.2z M112.5,57.5
			c-0.1-3-1.2-4.5-3.3-4.5c-1.1,0-2.1,0.4-2.7,1.2c-0.7,0.8-1.1,1.9-1.3,3.3H112.5z"/>
		<path class="st1" d="M128.8,71.1c-1.1-0.3-1.9-0.7-2.6-1.1h0l0.1,1.2h-3l-0.2-6.9h2.6c0.1,1.2,0.8,2.3,1.9,3.1
			c1.2,0.8,2.6,1.3,4.3,1.3c0.7,0,1.4-0.2,1.9-0.5c0.5-0.3,0.8-0.8,0.8-1.5c0-0.5-0.2-0.9-0.5-1.2c-0.3-0.3-0.8-0.6-1.2-0.8
			c-0.5-0.2-1.4-0.6-2.9-1.2c-1.7-0.7-3-1.2-3.8-1.6c-0.9-0.4-1.6-1.1-2.3-1.9c-0.7-0.8-1-1.9-1-3.3c0-1.1,0.3-2.1,0.8-3.1
			c0.5-1,1.4-1.8,2.5-2.4c1.1-0.6,2.5-0.9,4.2-0.9c0.8,0,1.6,0.1,2.5,0.4c0.9,0.2,1.7,0.6,2.3,1h0l0-1.2h3v7.1h-2.6
			c-0.2-1.4-0.9-2.5-1.8-3.3c-1-0.8-2.2-1.2-3.6-1.2c-0.7,0-1.4,0.2-1.9,0.5c-0.5,0.3-0.8,0.9-0.8,1.6c0,0.7,0.3,1.3,0.9,1.7
			c0.6,0.4,1.6,0.8,3,1.2c0.2,0,0.5,0.1,1,0.3c2.3,0.8,4,1.7,5.2,2.8s1.8,2.5,1.8,4.2c0,1.3-0.3,2.5-1,3.4c-0.7,0.9-1.6,1.6-2.7,2.1
			c-1.1,0.5-2.3,0.7-3.6,0.7C131,71.5,129.9,71.4,128.8,71.1z"/>
		<path class="st1" d="M158.5,63.8l0.1-9.6h-2.7v-3.3c0.9,0,1.7-0.3,2.4-0.8c0.8-0.5,1.4-1.2,1.9-2c0.5-0.8,0.9-1.5,1.1-2.2h3l0,5
			h5.1v3.1l-5.1,0.1l0,9.8c0,2.6,0.8,3.9,2.4,3.9c1.3,0,2.5-0.8,3.6-2.4l1.9,1.8c-1.3,1.8-2.5,3-3.8,3.5c-1.3,0.5-2.5,0.8-3.7,0.8
			C160.6,71.5,158.5,68.9,158.5,63.8z"/>
		<path class="st1" d="M179.9,70.3c-1.5-0.8-2.8-2-3.6-3.6c-0.9-1.5-1.3-3.3-1.3-5.4c0-2.2,0.5-4.1,1.4-5.8c0.9-1.7,2.1-3,3.7-3.9
			c1.5-0.9,3.2-1.4,5.1-1.4c1.9,0,3.6,0.4,5.2,1.2c1.5,0.8,2.7,2,3.6,3.6c0.9,1.6,1.3,3.4,1.3,5.5c0,2.2-0.4,4.1-1.3,5.8
			c-0.8,1.7-2,2.9-3.5,3.8c-1.5,0.9-3.2,1.4-5.2,1.4C183.2,71.5,181.5,71.1,179.9,70.3z M188.3,66.6c0.6-1.4,0.9-3.1,0.9-5.1
			c0-2.3-0.3-4.3-1-6c-0.7-1.7-1.7-2.5-3.2-2.5c-1.5,0-2.5,0.7-3.2,2.1c-0.7,1.4-1,3.1-1,5.1c0,2.3,0.4,4.3,1.1,6
			c0.7,1.7,1.8,2.5,3.3,2.5C186.7,68.7,187.7,68,188.3,66.6z"/>
		<path class="st1" d="M212.5,68.3c1,0,1.7-0.3,1.9-0.8c0.3-0.6,0.4-1.5,0.4-2.7V58c0-1.2,0.1-2.3,0.2-3.4l-2.8,0.1v-3
			c1.7,0,3-0.1,4.1-0.4c1-0.2,1.7-0.5,2.1-0.8h2c0,0.1,0.1,0.7,0.2,2h0.1c0.8-0.7,1.8-1.2,2.8-1.6c1-0.4,2.1-0.6,3-0.6
			c1.2,0,2.2,0.2,3,0.7c0.8,0.4,1.5,1.1,1.9,2c1-0.8,2-1.4,3.2-1.9c1.2-0.5,2.3-0.7,3.3-0.7c2.2,0,3.9,0.6,4.9,1.9
			c1.1,1.3,1.6,3.4,1.6,6.4v5.9c0,1.3-0.1,2.5-0.2,3.5c0.9-0.1,1.7-0.1,2.6-0.1v3h-10.1v-2.6c0.9,0,1.4-0.3,1.6-0.9
			c0.2-0.6,0.4-1.5,0.4-2.7v-6.1c0-1.7-0.3-2.9-0.8-3.6c-0.5-0.7-1.3-1.1-2.3-1.1c-1.2,0-2.3,0.4-3.4,1.3c0.2,1.1,0.4,2.3,0.4,3.8
			v5.4c0,1.3-0.1,2.5-0.2,3.5c0.9-0.1,1.7-0.1,2.6-0.1v3h-10.3v-2.6c0.9,0,1.5-0.3,1.8-0.8c0.3-0.6,0.4-1.5,0.4-2.7l0-6.2
			c0-1.7-0.2-2.8-0.7-3.5c-0.5-0.7-1.2-1-2.2-1.1c-1.2,0-2.3,0.5-3.4,1.5v9c0,1.3-0.1,2.5-0.2,3.5c0.9-0.1,1.7-0.1,2.4-0.1v3h-10.3
			V68.3z"/>
		<path class="st1" d="M252.3,70c-1-1-1.5-2.3-1.5-3.8c0-2.3,1.1-4.1,3.3-5.3c2.2-1.2,4.8-1.9,7.9-2v-2.1c0-2.4-0.9-3.6-2.7-3.6
			c-1.2,0-2.1,0.4-2.9,1.1c0.3,0.4,0.5,0.9,0.5,1.5s-0.2,1.2-0.7,1.7c-0.4,0.5-1.1,0.8-1.9,0.8c-0.8,0-1.4-0.3-1.9-0.8
			c-0.5-0.5-0.7-1.2-0.7-1.9c0-1,0.4-2,1.1-2.8c0.7-0.8,1.8-1.4,3.1-1.9c1.3-0.4,2.7-0.7,4.3-0.7c4.9,0,7.4,2.5,7.4,7.6l0,6.6
			c0,1.3-0.1,2.5-0.2,3.5c0.9-0.1,1.7-0.1,2.6-0.1v3h-7.6c-0.1-0.3-0.1-1-0.2-1.8h0c-1.6,1.7-3.6,2.5-5.9,2.5
			C254.6,71.5,253.3,71,252.3,70z M262,66.1v-4.5c-1.6,0.2-2.9,0.6-3.9,1.2c-1,0.6-1.5,1.5-1.5,2.6c0,0.7,0.2,1.3,0.7,1.6
			s1,0.5,1.6,0.5C260,67.6,261.1,67.1,262,66.1z"/>
		<path class="st1" d="M273.6,68.3c1,0,1.7-0.3,2-0.8c0.3-0.6,0.4-1.5,0.4-2.7V48.3c0-1.3,0.1-2.4,0.2-3.5l-2.8,0.1v-3
			c1.7,0,3-0.1,4.1-0.4c1-0.2,1.7-0.5,2-0.8h2.2v18.2h1.9l2.9-3.3c0.8-0.9,1.3-1.5,1.6-1.7v0l-2.1,0v-3h9v2.6
			c-1.3,0.1-2.4,0.5-3.3,1.1c-0.9,0.6-1.7,1.3-2.4,2.1l-2.6,2.8v0c0.4,0.2,0.8,0.5,1.2,0.9c0.4,0.4,0.8,0.9,1.4,1.6l2.7,3.5
			c0.7,0.9,1.3,1.5,1.8,2c0.5,0.5,1.1,0.8,1.8,0.8v2.6h-4.6c-0.8,0-1.5-0.3-2.1-0.8c-0.6-0.5-1.4-1.4-2.3-2.7c-1-1.4-2-2.7-2.9-4.2
			l-1.1-1.5l-0.9,0v2.7c0,1.3-0.1,2.5-0.2,3.5c0.9-0.1,1.7-0.1,2.6-0.1v3h-10.5V68.3z"/>
		<path class="st1" d="M303.4,70.2c-1.5-0.9-2.7-2.1-3.5-3.7c-0.8-1.6-1.2-3.5-1.2-5.6c0-1.9,0.4-3.6,1.3-5.3c0.8-1.6,2-3,3.5-3.9
			c1.5-1,3.3-1.5,5.2-1.5c2.6,0,4.7,0.8,6.5,2.3c1.7,1.5,2.6,4.1,2.5,7.6l-13.1,0.2c0,2.3,0.4,4.2,1.3,5.6c0.9,1.4,2.3,2,4.3,2
			c0.9,0,1.9-0.2,3-0.7c1.1-0.5,2-1.2,2.9-2.3l1.8,1.7c-2.3,3.3-5.4,4.9-9.3,4.9C306.6,71.5,304.8,71.1,303.4,70.2z M312.1,57.5
			c-0.1-3-1.2-4.5-3.3-4.5c-1.1,0-2.1,0.4-2.7,1.2c-0.7,0.8-1.1,1.9-1.3,3.3H312.1z"/>
		<path class="st1" d="M336.1,70c-1-1-1.5-2.3-1.5-3.8c0-2.3,1.1-4.1,3.3-5.3c2.2-1.2,4.8-1.9,7.9-2v-2.1c0-2.4-0.9-3.6-2.7-3.6
			c-1.2,0-2.1,0.4-2.9,1.1c0.3,0.4,0.5,0.9,0.5,1.5s-0.2,1.2-0.7,1.7c-0.4,0.5-1.1,0.8-1.9,0.8c-0.8,0-1.4-0.3-1.9-0.8
			c-0.5-0.5-0.7-1.2-0.7-1.9c0-1,0.4-2,1.1-2.8c0.7-0.8,1.8-1.4,3.1-1.9c1.3-0.4,2.7-0.7,4.3-0.7c4.9,0,7.4,2.5,7.4,7.6l0,6.6
			c0,1.3-0.1,2.5-0.2,3.5c0.9-0.1,1.7-0.1,2.6-0.1v3h-7.6c-0.1-0.3-0.1-1-0.2-1.8h0c-1.6,1.7-3.6,2.5-5.9,2.5
			C338.4,71.5,337.1,71,336.1,70z M345.8,66.1v-4.5c-1.6,0.2-2.9,0.6-3.9,1.2c-1,0.6-1.5,1.5-1.5,2.6c0,0.7,0.2,1.3,0.7,1.6
			s1,0.5,1.6,0.5C343.8,67.6,344.8,67.1,345.8,66.1z"/>
		<path class="st1" d="M358,68.3c1,0,1.7-0.3,1.9-0.8c0.3-0.6,0.4-1.5,0.4-2.7V58c0-1.2,0.1-2.3,0.2-3.4l-2.8,0.1v-3
			c1.7,0,3-0.1,4.1-0.4c1-0.2,1.7-0.5,2.1-0.8h2c0,0.1,0.1,0.7,0.2,2h0.1c0.8-0.6,1.7-1.1,2.9-1.6c1.1-0.4,2.1-0.7,2.9-0.7
			c2.4,0,4.2,0.7,5.2,2.1s1.6,3.6,1.6,6.8v5.4c0,1.3-0.1,2.5-0.2,3.5c0.9-0.1,1.7-0.1,2.6-0.1v3h-10.5v-2.6c1,0,1.7-0.3,2-0.8
			c0.3-0.6,0.4-1.5,0.4-2.7l0-5.7c0-1.8-0.2-3.1-0.7-3.9c-0.5-0.8-1.3-1.2-2.5-1.2c-0.6,0-1.3,0.1-2,0.4s-1.2,0.6-1.7,1.1v9
			c0,1.3-0.1,2.5-0.2,3.5c0.9-0.1,1.7-0.1,2.6-0.1v3H358V68.3z"/>
	</g>
	<g id="Path_19_3_">
		<g>
			<polygon class="st1" points="908.8,301.7 0,301.7 0,170.9 5,170.9 5,296.7 908.8,296.7 			"/>
		</g>
	</g>
	<g id="Path_20_3_">
		<polygon class="st1" points="1066,67.3 1061,67.3 1061,5.3 418.4,5.3 418.4,0.3 1066,0.3 		"/>
	</g>
</g>
</svg>
